<svg width="539" height="508" viewBox="0 0 539 508" fill="none" xmlns="http://www.w3.org/2000/svg">
<path d="M348.286 256.119C336.551 217.357 355.736 209.981 369.5 198.5L397.5 246.001L435 324.001C435 324.001 416 338.001 412 340.501C387.376 331.065 354.221 275.719 348.286 256.119Z" fill="#3BCC95"/>
<path d="M248.193 127.761C245.267 130.663 241.119 121.374 239.965 125.377C238.797 129.395 240.569 146.719 240.185 150.931L239.182 163.654L238.921 166.838C238.852 167.865 238.701 169.041 238.701 169.889C238.701 170.321 238.756 170.722 238.838 170.975C238.907 171.169 239.003 171.288 239.141 171.362C239.223 171.407 239.251 171.407 239.388 171.437C239.539 171.466 239.731 171.496 239.965 171.511C240.432 171.571 241.119 171.6 241.929 172.032C242.863 172.553 243.481 173.565 243.742 174.368C244.031 175.202 244.127 175.961 244.195 176.675L244.553 180.559L245.239 187.88C245.459 190.261 245.734 192.583 246.531 194.383C247.313 196.199 248.605 197.255 250.335 197.508C252.052 197.761 254.017 197.27 255.72 196.258C257.505 195.261 259.195 193.788 261.036 192.27C262.862 190.737 264.978 189.279 267.12 188.163C269.277 187.017 271.516 186.139 273.796 185.425C274.936 185.068 276.076 184.77 277.23 184.502L278.755 184.175L279.593 183.996L280.005 183.907C280.128 183.922 280.321 183.758 280.362 183.952L281.928 186.854C286.625 195.767 288.919 205.589 291.227 215.038C293.438 224.518 295.828 233.937 300.224 242.122C301.254 243.997 302.779 245.693 304.125 245.753C305.32 245.991 307.38 244.101 309.179 242.851C312.806 240.068 316.212 236.928 319.316 233.446C322.407 229.949 325.223 226.154 327.695 222.077C330.154 217.985 332.269 213.654 334 209.101C332.64 213.788 330.841 218.357 328.643 222.687C326.418 227.018 323.781 231.11 320.8 234.905C317.806 238.684 314.44 242.137 310.787 245.217C309.866 245.991 308.932 246.705 307.984 247.449C307.49 247.806 306.94 248.208 306.267 248.521C305.594 248.833 304.784 249.027 304.001 248.997C302.38 248.937 301.007 248.089 300.004 247.152C298.974 246.199 298.191 245.113 297.518 243.997C292.408 235.351 289.922 225.559 287.463 216.14C285.087 206.69 282.766 197.255 278.37 189.086C278.178 188.714 278.246 188.848 278.233 188.818C278.233 188.803 278.233 188.803 278.233 188.803C278.219 188.803 278.288 188.788 278.095 188.833C277.024 189.071 275.966 189.339 274.922 189.666C272.835 190.306 270.802 191.08 268.879 192.092C266.928 193.089 265.184 194.264 263.426 195.708C261.64 197.136 259.786 198.758 257.533 200.008C255.239 201.258 252.561 201.973 249.786 201.511C248.399 201.273 246.998 200.663 245.844 199.666C244.704 198.669 243.838 197.36 243.289 196.035C242.19 193.342 242.011 190.678 241.833 188.193L241.393 180.842L241.16 176.987C241.119 176.407 241.05 175.871 240.926 175.484C240.789 175.083 240.693 174.949 240.555 174.844C240.487 174.77 240.157 174.681 239.663 174.621C239.415 174.577 239.127 174.547 238.784 174.458C238.44 174.368 238.001 174.19 237.657 173.966C236.943 173.505 236.435 172.702 236.215 171.883C236.009 171.124 235.981 170.44 236.009 169.815C236.078 168.535 236.256 167.597 236.38 166.511L236.778 163.341C237.328 159.115 237.836 154.904 238.454 150.663C239.099 146.436 237.602 129.038 239.099 125.005C240.514 121.017 245.047 130.365 248.193 127.761Z" fill="black"/>
<path d="M289 178.5L275.5 184.5L285 208.5L289 178.5Z" fill="black"/>
<path d="M232.731 138.333C232.211 139.121 231.052 139.002 230.279 138.883C229.432 138.779 228.6 138.541 227.782 138.229C226.163 137.575 224.647 136.564 223.443 135.151C222.18 133.798 221.333 131.985 220.992 129.993C220.739 127.986 221.125 125.904 221.972 124.165C222.879 122.44 224.142 121.028 225.554 119.883C227.025 118.798 228.54 117.936 230.13 117.371C233.266 116.167 236.386 115.646 239.655 115.186C237.099 117.222 234.261 118.902 231.691 120.478C230.457 121.325 229.239 122.113 228.288 123.095C227.292 124.001 226.46 125.057 225.955 126.172C225.36 127.257 225.108 128.402 225.167 129.547C225.182 130.721 225.598 131.925 226.237 133.1C226.891 134.274 227.812 135.374 228.897 136.37C229.447 136.861 230.026 137.337 230.68 137.753C231.007 137.976 231.319 138.184 231.661 138.318C231.973 138.467 232.404 138.526 232.731 138.333Z" fill="black"/>
<path d="M231.601 116.538C230.888 115.423 230.517 114.026 230.531 112.628C230.546 111.216 230.873 109.804 231.468 108.496C232.671 105.834 234.796 103.798 236.921 102.148C239.031 100.453 241.126 99.0107 243.415 97.4943C245.718 96.082 248.244 94.7886 250.993 93.9709C253.742 93.2276 256.58 92.9154 259.404 93.0195C262.212 93.1979 264.991 93.7628 267.577 94.8183C270.162 95.8293 272.584 97.2713 274.62 99.1148C275.616 100.051 276.611 101.018 277.369 102.192C278.127 103.352 278.632 104.764 278.469 106.087C278.186 104.779 277.369 103.768 276.448 102.965C275.526 102.133 274.427 101.508 273.342 100.869C271.158 99.6351 268.84 98.7431 266.477 98.1187C264.099 97.5538 261.692 97.1672 259.285 97.2416C256.878 97.2267 254.485 97.5686 252.227 98.2525C249.938 98.8472 247.739 99.873 245.555 101.122C243.355 102.296 241.111 103.738 238.912 104.987C236.772 106.295 234.781 107.693 233.34 109.581C231.928 111.454 230.977 113.937 231.601 116.538Z" fill="black"/>
<path d="M276.165 97.777C281.723 93.9266 289.257 92.8264 296.092 94.6104C297.816 95.0416 299.495 95.6511 301.1 96.4093C302.705 97.1972 304.235 98.1487 305.691 99.1893C308.53 101.375 310.967 104.036 312.928 107.009C314.815 110.042 316.227 113.342 317.104 116.776C317.876 120.24 318.174 123.808 317.802 127.302C317.163 134.274 314.236 140.875 309.822 145.945C312.765 139.909 314.295 133.472 314.325 127.138C314.265 123.972 313.924 120.85 313.017 117.862C312.185 114.874 310.878 112.004 309.184 109.432C307.534 106.816 305.483 104.452 303.091 102.519C301.902 101.538 300.639 100.661 299.302 99.8881C297.95 99.1447 296.538 98.5055 295.082 97.9405C289.227 95.8592 282.51 95.5173 276.165 97.777Z" fill="black"/>
<path d="M314.637 139.076C316.851 140.681 318.59 143.03 319.556 145.662C319.808 146.316 320.016 147 320.195 147.669L320.611 149.75L320.759 151.861L320.729 153.987L320.417 156.083L319.942 158.149L319.199 160.142C318.902 160.781 318.59 161.42 318.233 162.03C316.851 164.483 314.771 166.519 312.319 167.738C313.537 165.285 314.355 162.936 315.053 160.632C315.172 160.038 315.335 159.458 315.499 158.893L315.856 157.139L316.153 155.399L316.301 153.645L316.435 151.876L316.42 150.107L316.361 148.323C316.286 147.728 316.227 147.148 316.212 146.524C315.885 144.13 315.439 141.677 314.637 139.076Z" fill="black"/>
<path d="M313.864 166.163C316.465 168.839 318.813 171.663 320.923 174.637C322.022 176.093 322.988 177.625 324.028 179.096C324.994 180.613 325.99 182.1 327 183.556C327.966 185.043 328.932 186.53 329.972 187.942C330.938 189.414 332.023 190.782 333.078 192.194C335.247 194.959 337.536 197.635 340.21 200.237C336.644 199.137 333.301 197.13 330.537 194.558C329.095 193.324 327.862 191.897 326.629 190.499C325.44 189.042 324.37 187.526 323.285 186.024C322.305 184.463 321.339 182.873 320.432 181.297C319.585 179.676 318.694 178.086 317.936 176.421C316.331 173.135 314.979 169.716 313.864 166.163Z" fill="black"/>
<path d="M286.359 219.5C280.846 222.741 290.787 218.003 286.359 222.552C281.976 227.131 277.533 231.665 273.045 236.14C268.602 240.659 264.04 245.06 259.538 249.52L245.852 262.721C241.26 267.033 236.773 271.314 234.41 276.666C233.162 279.342 232.315 282.33 231.349 285.393C230.353 288.455 229.254 291.488 228.005 294.446C223.102 306.34 216.445 317.237 209.579 327.911C214.929 316.389 220.516 304.987 224.751 293.183C225.776 290.224 226.727 287.251 227.589 284.248C228.436 281.245 229.224 278.078 230.546 274.942C231.899 271.79 233.875 268.95 236.015 266.453C238.169 263.925 240.502 261.681 242.791 259.48L256.64 246.457C261.321 242.176 265.942 237.835 270.667 233.613C275.363 229.346 280.103 225.139 284.888 220.976C289.643 216.903 280.43 221.968 286.359 219.5Z" fill="black"/>
<path d="M358.518 143.819C356.497 144.845 354.52 145.915 352.856 147.223C351.192 148.532 349.869 150.033 349.245 151.728C348.636 153.437 348.532 155.34 349.23 156.634C349.527 157.303 349.973 157.779 350.686 158.314C351.4 158.834 352.336 159.34 353.376 159.979C354.387 160.663 355.56 161.51 356.437 162.878C357.344 164.29 357.552 165.613 357.849 166.461C358.131 167.382 358.295 167.635 358.755 167.932C359.231 168.23 360.108 168.393 361.073 168.423C365.219 168.304 369.618 167.665 373.972 166.475C370.331 169.226 366.051 171.144 361.311 171.902C360.063 172.08 358.636 172.14 357.076 171.485C356.318 171.158 355.546 170.608 355.011 169.91C354.461 169.226 354.134 168.512 353.881 167.918C353.436 166.669 353.183 165.762 352.826 165.301C352.47 164.781 351.816 164.275 350.969 163.755C350.137 163.19 349.111 162.61 348.041 161.778C346.986 160.96 345.902 159.711 345.352 158.314C344.297 155.459 344.802 152.531 346.11 150.256C347.388 147.877 349.587 146.316 351.756 145.38C353.985 144.414 356.259 144.027 358.518 143.819Z" fill="black"/>
<path d="M351.608 146.286C352.618 145.082 353.718 143.937 354.877 142.867C356.051 141.797 357.254 140.756 358.696 139.879C360.107 139.002 361.876 138.377 363.674 138.288C365.472 138.199 367.21 138.526 368.815 139.046C372.04 140.057 374.848 141.618 377.612 143.372C380.331 145.231 382.798 147.282 385.087 149.765C386.186 151.058 387.197 152.456 388.014 154.047C388.831 155.622 389.426 157.406 389.559 159.339C389.648 161.257 389.158 163.294 388.266 164.884C387.39 166.505 386.275 167.783 385.176 168.943C380.762 173.715 375.086 177.224 369.053 178.963C374.373 175.618 378.89 171.44 382.516 166.698C383.407 165.479 384.24 164.29 384.774 163.13C385.309 161.956 385.488 160.841 385.354 159.651C385.146 157.273 383.63 154.82 381.758 152.723C379.886 150.583 377.597 148.546 375.22 146.836C372.872 145.067 370.227 143.506 367.626 142.302C366.319 141.737 364.981 141.336 363.659 141.217C362.336 141.098 361.014 141.306 359.647 141.826C358.295 142.332 356.928 143.075 355.575 143.818C354.223 144.577 352.901 145.394 351.608 146.286Z" fill="black"/>
<path d="M336.867 97.301C341.563 95.2941 347.581 96.1712 351.979 99.5162C354.223 101.107 356.021 103.53 357.165 105.998C358.25 108.51 358.948 110.815 359.81 113.179L362.069 120.314C362.738 122.723 363.496 125.101 364.09 127.525C365.398 132.341 366.438 137.262 367.196 142.257C364.788 137.812 362.649 133.263 360.791 128.625C359.795 126.321 358.978 123.972 358.057 121.652L355.575 114.591C354.803 112.242 354.104 109.744 353.272 107.648C352.514 105.507 351.311 103.768 349.735 102.162C346.526 99.1148 341.934 97.0483 336.867 97.301Z" fill="black"/>
<path d="M361.371 179.364C368.592 190.276 375.576 201.322 382.308 212.517C385.711 218.092 389.039 223.696 392.279 229.42L397.078 238.013L398.267 240.168L399.337 242.384L401.477 246.829L405.637 255.763L409.65 264.698C412.235 270.689 414.895 276.651 417.406 282.687C422.548 294.699 427.407 306.83 432.028 319.08C425.832 307.544 419.903 295.903 414.241 284.129C411.358 278.271 408.609 272.34 405.801 266.452L401.685 257.562L397.465 248.776L395.414 244.361L394.389 242.146L393.23 240.005L388.579 231.442C385.607 225.688 382.337 220.009 379.291 214.226C373.08 202.749 367.106 191.124 361.371 179.364Z" fill="black"/>
<path d="M282.986 299.709C289.628 307.35 296.033 315.155 302.214 323.139C305.35 327.093 308.366 331.137 311.427 335.151L320.447 347.297L329.259 359.591C332.127 363.739 335.069 367.842 337.877 372.035C343.584 380.36 349.052 388.849 354.297 397.516C347.655 389.875 341.236 382.07 335.069 374.086C331.934 370.132 328.932 366.088 325.856 362.074L316.851 349.913L308.039 337.619C305.171 333.471 302.229 329.368 299.421 325.175C293.7 316.85 288.231 308.361 282.986 299.709Z" fill="black"/>
<path d="M89 261C103.206 284.757 122.487 318.099 137.703 341.157C145.371 352.634 153.068 364.155 161.063 375.35C169.027 386.485 177.765 397.218 188.865 404.86C194.333 408.695 200.411 411.624 206.845 413.349C210.04 414.241 213.339 414.791 216.638 414.999C219.937 415.237 223.25 415.118 226.475 414.553C232.968 413.557 239.061 410.732 244.039 406.391C249.076 402.095 253.088 396.564 256.892 390.87C260.637 385.132 264.293 379.171 268.334 373.521C272.346 367.842 276.596 362.327 281.069 357.005C290 346.36 299.822 336.504 310.343 327.509C300.401 337.143 291.174 347.445 282.763 358.372C278.558 363.828 274.561 369.433 270.756 375.171C266.923 380.895 263.505 386.827 259.805 392.759C256.12 398.661 252.048 404.563 246.595 409.35C243.905 411.758 240.829 413.795 237.545 415.4C234.276 417.036 230.725 418.047 227.158 418.715C223.577 419.37 219.937 419.503 216.341 419.28C212.744 419.072 209.163 418.493 205.701 417.541C198.762 415.727 192.164 412.591 186.294 408.532C174.54 400.326 165.61 389.131 157.6 377.803C149.725 366.341 142.117 354.804 134.761 343.045C120.02 319.6 101.69 285.604 89 261Z" fill="black"/>
<path d="M88.5 260.149C79.4981 260.149 79.4981 261 69.141 260.149C60.9682 257.443 52.2604 257.592 43.4338 255.6C41.2346 255.109 39.0354 254.455 36.8956 253.563C34.7261 252.686 32.616 251.422 30.818 249.817C29.02 248.211 27.3854 246.204 26.5384 243.647C26.1223 242.383 25.9143 240.986 26.0332 239.603C26.1669 238.221 26.5681 236.883 27.2219 235.664C28.5593 233.211 30.7437 231.62 32.8835 230.475C35.0678 229.36 37.3265 228.647 39.5852 228.141C44.0133 227.205 48.4266 226.61 52.8994 226.342C61.83 225.882 70.7755 226.595 79.4981 228.29C81.6676 228.736 83.8372 229.227 85.9918 229.777C88.1762 230.297 90.2268 230.996 92.0545 231.129C92.9758 231.204 93.8228 231.159 94.5658 230.921C95.3237 230.683 96.0369 230.267 96.5124 229.762C96.9879 229.241 97.2405 228.736 97.2405 228.037C97.2703 227.353 97.0176 226.447 96.6759 225.436C96.3341 224.41 95.8883 223.265 95.7694 221.868C95.6208 220.485 96.0072 218.835 96.9434 217.646C97.8646 216.441 99.1574 215.713 100.406 215.326C101.684 214.94 102.976 214.836 104.239 214.97C105.503 215.103 106.751 215.46 107.895 216.099C108.46 216.412 109.009 216.828 109.485 217.259C109.931 217.69 110.332 218.136 110.718 218.612C112.219 220.545 113.081 222.745 113.735 224.886C114.389 227.041 114.834 229.182 115.429 231.234C116.008 233.3 116.751 235.337 117.598 237.314C119.307 241.283 121.551 245.045 124.255 248.479C121.224 245.327 118.609 241.729 116.528 237.834C115.488 235.887 114.567 233.85 113.809 231.769C113.036 229.673 112.442 227.576 111.684 225.584C110.258 221.659 107.806 217.883 104.017 217.913C102.219 217.794 100.287 218.463 99.5289 219.608C99.1574 220.173 99.0088 220.797 99.1129 221.585C99.202 222.358 99.5586 223.28 99.945 224.306C100.331 225.346 100.822 226.551 100.851 228.067C100.926 229.568 100.272 231.234 99.2763 232.304C98.2807 233.419 97.0474 234.147 95.7397 234.593C94.4023 235.054 93.0204 235.129 91.7722 235.054C89.2163 234.891 87.0914 234.162 85.0259 233.731C82.9307 233.241 80.8206 232.824 78.7106 232.453C70.2703 230.892 61.6666 230.282 53.152 230.802C48.9022 231.011 44.6226 231.546 40.5065 232.378C38.5004 232.809 36.5687 233.419 34.8449 234.281C33.1509 235.158 31.665 236.303 30.9071 237.715C30.5059 238.414 30.2533 239.187 30.1493 239.99C30.075 240.793 30.1642 241.596 30.4019 242.413C30.8923 244.049 32.0365 245.609 33.4481 246.933C34.8747 248.256 36.5389 249.341 38.3815 250.144C40.2538 250.991 42.2302 251.675 44.2659 252.225C48.3523 253.325 52.6468 253.935 56.9709 254.708C61.2951 255.451 65.6935 256.492 69.8394 258.097C79.4981 258.097 80.0925 259.525 88.5 260.149Z" fill="black"/>
<path d="M228.585 107.042C229.693 104.509 231.814 102.577 233.935 100.804C239 96.5763 244.602 92.7764 250.965 91.0347C257.438 89.2614 264.497 89.7839 270.654 92.4755C271.73 92.9505 272.838 93.5047 274.009 93.4889C274.975 93.473 275.909 93.093 276.811 92.7447C283.87 90.0847 291.862 90.0372 298.953 92.5864C306.043 95.1355 312.169 100.297 315.904 106.836C317.122 108.974 318.12 111.301 318.404 113.755C318.832 117.334 317.756 120.896 317.202 124.459C316.315 130.016 316.679 135.764 318.23 141.163C318.943 143.617 319.892 146.008 320.446 148.509C321.412 152.863 321.111 157.503 319.576 161.698C318.768 163.931 317.502 166.147 315.397 167.256C312.153 168.95 308.228 167.43 304.904 165.894C302.356 164.722 299.744 163.519 297.639 161.667C295.534 159.814 293.936 157.17 293.999 154.352C294.046 152.151 295.075 150.124 295.803 148.05C296.895 144.947 297.37 141.638 297.149 138.36C296.959 135.368 296.041 132.169 293.603 130.428C290.834 128.464 287.035 129.019 283.775 130C282.35 130.428 280.878 130.966 279.865 132.059C278.852 133.151 278.457 134.956 279.359 136.144C279.818 136.745 280.578 137.189 280.688 137.933C280.878 139.057 279.565 139.769 278.488 140.118C269.546 143.047 260.208 146.008 250.917 144.63C247.815 144.171 244.808 143.253 241.833 142.318C239.079 141.463 236.309 140.608 233.555 139.753C231.608 139.152 229.646 138.55 227.81 137.679C225.404 136.539 223.22 134.956 221.384 133.04C218.931 130.459 217.079 126.659 218.488 123.382C219.406 121.276 221.431 119.93 223.362 118.695C225.293 117.46 228.664 116.273 228.807 113.945C228.933 111.428 227.367 109.829 228.585 107.042Z" fill="black"/>
<path d="M217.782 315.2C225.851 319.303 233.563 324.209 240.591 330.007C244.187 332.817 247.486 335.953 250.8 339.09C254.01 342.331 257.13 345.661 260.102 349.125C263 352.648 265.793 356.261 268.409 359.993C270.994 363.754 273.416 367.604 275.645 371.603C276.76 373.625 277.8 375.766 278.484 378.1C278.81 379.26 279.048 380.479 279.122 381.713C279.152 382.337 279.152 382.961 279.093 383.571C279.018 384.299 278.9 385.266 278.662 385.964L277.473 386.396C277.102 386.529 276.626 386.648 276.388 386.708C275.794 386.842 275.214 386.946 274.62 387.005C273.431 387.139 272.242 387.124 271.083 386.975C268.75 386.693 266.522 385.86 264.664 384.567C266.744 385.474 268.973 385.86 271.143 385.786C272.228 385.741 273.298 385.593 274.323 385.325C274.843 385.191 275.348 385.028 275.839 384.835C276.136 384.716 276.195 384.671 276.344 384.612L276.715 384.403C276.76 384.091 276.73 383.883 276.715 383.497C276.686 382.991 276.641 382.486 276.552 381.98C276.373 380.984 276.076 379.988 275.69 379.022C274.917 377.074 273.832 375.216 272.644 373.372C270.147 369.7 267.695 365.969 264.976 362.446C262.376 358.833 259.582 355.369 256.699 351.98C253.876 348.545 250.889 345.245 247.813 342.019C244.752 338.793 241.587 335.656 238.333 332.594C231.795 326.513 224.929 320.76 217.782 315.2Z" fill="black"/>
<path d="M277.83 385.667C279.494 381.192 281.946 377 284.829 373.209C286.225 371.276 287.786 369.492 289.316 367.679L294.116 362.49L299.049 357.525C300.728 355.919 302.333 354.239 304.012 352.634C307.281 349.333 310.565 346.078 313.775 342.554C312.051 346.999 309.54 351.162 306.642 354.923C305.231 356.841 303.656 358.625 302.125 360.424L297.326 365.597L292.392 370.563C290.713 372.183 289.138 373.863 287.459 375.469C284.219 378.784 280.965 382.084 277.83 385.667Z" fill="black"/>
<path d="M269.672 373.834C268.379 375.603 267.16 377.416 266.016 379.275C265.466 380.167 264.917 381.103 264.664 382.114C264.501 382.783 264.471 383.497 264.753 384.121C265.229 385.177 266.447 385.667 267.562 385.979C270.222 386.738 273.089 387.109 275.72 386.262C276.284 386.084 276.849 385.831 277.206 385.37C277.711 384.716 277.681 383.779 277.399 382.991C277.116 382.203 276.641 381.52 276.284 380.761C275.72 379.557 275.526 378.234 275.199 376.941C274.783 375.276 274.174 373.194 273.134 371.812C271.945 370.251 270.4 372.823 269.672 373.834Z" fill="black"/>
<path d="M338.13 96.647C331.547 99.1743 325.841 103.352 321.71 108.466C320.759 109.744 320.135 110.978 320.016 112.272C319.882 113.58 320.18 115.052 320.73 116.524C321.829 119.527 323.404 122.589 325.47 124.834C327.491 127.183 330.091 128.684 332.989 128.759C333.969 128.818 334.935 128.699 335.812 128.417C336.258 128.283 336.674 128.09 337.06 127.867C338.026 127.213 338.873 126.306 339.705 125.577C340.359 126.306 341.013 127.138 341.637 127.896C341.786 128.09 341.949 128.283 342.098 128.476L342.484 128.997C342.647 129.234 342.826 129.457 342.974 129.71C347.165 135.761 349.23 143.135 348.859 150.196C347.477 143.254 344.416 136.965 340.196 131.791L339.676 131.197C339.527 131.018 339.557 131.093 339.497 131.033C339.423 130.989 339.349 130.914 339.289 130.929L339.126 131.152C338.502 131.568 337.833 131.91 337.149 132.178C335.767 132.713 334.326 132.951 332.885 132.966C330.804 132.936 328.754 132.446 326.867 131.494C325.009 130.558 323.449 129.249 322.111 127.792C320.819 126.306 319.764 124.685 318.887 123.005C318.01 121.325 317.297 119.66 316.688 117.817C316.153 115.959 315.766 113.892 316.123 111.707C316.465 109.477 317.713 107.574 319.036 106.206C324.222 100.81 331.102 97.4944 338.13 96.647Z" fill="black"/>
<path d="M356.437 173.031C357.358 174.34 357.745 176.094 357.685 177.774C357.641 179.454 357.195 181.134 356.615 182.62C356.095 184.137 355.382 185.489 354.907 186.827C354.357 188.136 353.941 189.384 353.896 190.499C353.837 191.049 353.852 191.555 353.956 191.956C354.074 192.373 354.208 192.655 354.535 192.997C354.817 193.369 355.338 193.77 355.902 194.142C356.467 194.513 357.032 194.885 357.626 195.227C360.048 196.52 362.812 197.502 365.962 197.888C363.079 199.241 359.543 199.464 356.318 198.453C355.501 198.245 354.699 197.903 353.941 197.531C353.183 197.16 352.41 196.714 351.593 196.03C350.805 195.316 350.122 194.261 349.81 193.205C349.468 192.15 349.409 191.094 349.468 190.128C349.676 188.165 350.389 186.53 351.088 185.058C351.89 183.616 352.678 182.308 353.51 181.089C354.297 179.84 354.996 178.666 355.575 177.343C356.125 176.034 356.526 174.622 356.437 173.031Z" fill="black"/>
<path d="M248.058 159.209C247.478 159.075 246.929 158.778 246.527 158.272C246.126 157.796 245.829 157.023 246.111 156.057C246.245 155.566 246.468 155.135 246.943 154.734C247.404 154.347 247.969 154.124 248.489 154.02C249.574 153.916 250.48 154.214 251.297 154.853C251.669 155.21 251.996 155.671 252.204 156.235C252.412 156.815 252.427 157.35 252.367 157.871C252.129 158.897 251.58 159.64 250.852 160.026C250.168 160.458 249.291 160.577 248.548 160.279C248.162 160.131 247.865 159.878 247.657 159.566C247.449 159.253 247.389 158.807 247.582 158.555C247.85 158.733 248.088 158.629 248.236 158.525C248.4 158.406 248.519 158.257 248.548 158.109C248.637 157.811 248.593 157.573 248.519 157.44C248.489 157.395 248.459 157.365 248.444 157.336C248.444 157.336 248.489 157.38 248.533 157.395C248.623 157.44 248.756 157.484 248.831 157.499C248.875 157.499 248.905 157.499 248.905 157.499L249.083 157.455L249.054 157.469C248.994 157.484 248.86 157.573 248.801 157.663C248.637 157.871 248.771 157.782 248.756 157.455C248.756 157.321 248.697 157.202 248.697 157.202L248.89 157.41C248.875 157.395 248.86 157.38 248.845 157.365C248.831 157.35 248.831 157.35 248.875 157.38C248.92 157.395 248.979 157.425 249.083 157.455C249.128 157.455 249.009 157.455 248.979 157.484C248.86 157.529 248.741 157.648 248.637 157.811C248.415 158.138 248.221 158.629 248.058 159.209Z" fill="black"/>
<path d="M242 185.768C243.427 185.247 244.244 184.519 245.239 183.999C245.715 183.672 246.22 183.464 246.755 183.151L248.405 182.438C248.969 182.274 249.534 182.096 250.069 181.917C250.648 181.813 251.168 181.605 251.763 181.531C252.892 181.278 255.282 180.149 256.783 180C256.426 181.472 254.423 183.761 253.368 184.623C252.862 185.114 252.268 185.441 251.718 185.812C251.124 186.11 250.529 186.377 249.935 186.63L248.092 187.15C247.454 187.24 243.996 188.03 243.283 188C241.886 188.059 242.966 186.972 242 185.768Z" fill="black"/>
<path d="M285 135.863C286.025 135.015 287.482 134.792 288.73 135.194C289.384 135.342 289.948 135.714 290.513 136.115C291.018 136.561 291.479 137.096 291.865 137.691C292.177 138.33 292.4 138.985 292.534 139.653C292.578 140.337 292.623 141.006 292.415 141.66C292.133 142.939 291.196 144.084 289.933 144.53C289.666 143.236 289.22 142.374 288.938 141.66C288.73 141.304 288.641 140.991 288.447 140.709C288.329 140.412 288.18 140.144 288.002 139.906C287.898 139.639 287.734 139.356 287.541 139.103C287.392 138.791 287.17 138.553 286.961 138.197C286.486 137.572 285.981 136.755 285 135.863Z" fill="black"/>
<path d="M387.182 165.538C394.626 171.99 401.893 178.606 408.966 185.385C412.547 188.745 416.024 192.194 419.561 195.598L430.007 205.945L440.32 216.426C443.708 219.979 447.155 223.458 450.499 227.056C457.26 234.162 463.857 241.447 470.277 248.924C462.654 242.695 455.239 236.228 448.062 229.539C444.421 226.238 440.914 222.804 437.348 219.429L426.857 209.097L416.574 198.557C413.216 194.989 409.798 191.45 406.499 187.808C399.827 180.613 393.393 173.194 387.182 165.538Z" fill="black"/>
<path d="M336.481 188.983C337.625 188.002 338.918 187.363 340.24 187.095C340.909 186.902 341.563 186.902 342.246 186.828C342.915 186.843 343.584 186.887 344.252 186.932C344.906 187.066 345.56 187.229 346.199 187.407C346.823 187.675 347.462 187.868 348.041 188.24C349.23 188.879 350.285 189.86 351.088 191.139C349.602 191.451 348.309 191.63 347.105 191.585C346.481 191.63 345.917 191.525 345.322 191.525C344.743 191.451 344.178 191.377 343.598 191.332C343.034 191.213 342.469 191.109 341.89 191.005C341.325 190.842 340.745 190.767 340.166 190.544C339.007 190.247 337.803 189.712 336.481 188.983Z" fill="black"/>
<path d="M90.5806 93.169L92.5709 90.0941L89.116 91.3108L17.3204 116.595L13.8655 117.812L17.3434 118.961L63.0071 134.049L63.924 134.352L64.4487 133.542L90.5806 93.169ZM13.4716 124.283L11.0549 123.484L11.9004 125.885L28.7442 173.714C29.8572 176.874 33.3314 178.538 36.4916 177.425L112.293 150.73C115.453 149.617 117.118 146.143 116.005 142.982L99.1611 95.1541L98.3156 92.7535L96.9327 94.8901L67.8703 139.791L67.8702 139.791C67.4831 140.389 66.9186 140.818 66.2803 141.043C65.6419 141.268 64.9328 141.287 64.2563 141.063L64.2562 141.063L13.4716 124.283ZM13.2355 111.389L89.0371 84.6937C95.4549 82.4336 102.518 85.8175 104.778 92.2353L121.916 140.901C124.177 147.318 120.793 154.381 114.375 156.641L38.5733 183.336C32.1555 185.597 25.0925 182.213 22.8323 175.795L5.69394 127.13C3.43378 120.712 6.8177 113.649 13.2355 111.389Z" fill="black" stroke="white" stroke-width="2.5"/>
<rect width="115" height="66.4844" rx="7" transform="matrix(-1 0 0 1 451 0)" fill="#36F2B9"/>
<path d="M336 72.245V53.0078L366.547 61.9922L341.951 75.7368C339.285 77.2268 336 75.2994 336 72.245Z" fill="#36F2B9"/>
<path d="M362.508 71.4844V70.4844H362.248L362.02 70.6114L362.508 71.4844ZM345.951 80.7368L346.439 81.6097H346.439L345.951 80.7368ZM456 12C456 7.58172 452.418 4 448 4V6C451.314 6 454 8.68629 454 12H456ZM456 64.4844V12H454V64.4844H456ZM448 72.4844C452.418 72.4844 456 68.9027 456 64.4844H454C454 67.7981 451.314 70.4844 448 70.4844V72.4844ZM362.508 72.4844H448V70.4844H362.508V72.4844ZM362.02 70.6114L345.463 79.8638L346.439 81.6097L362.996 72.3573L362.02 70.6114ZM345.463 79.8638C343.464 80.9813 341 79.5358 341 77.245H339C339 81.0629 343.106 83.4722 346.439 81.6097L345.463 79.8638ZM341 77.245V64.4844H339V77.245H341ZM341 64.4844V58.0078H339V64.4844H341ZM339 12V58.0078H341V12H339ZM347 4C342.582 4 339 7.58172 339 12H341C341 8.68629 343.686 6 347 6V4ZM448 4H347V6H448V4Z" fill="black"/>
<circle cx="4.5" cy="4.5" r="4.5" transform="matrix(-1 0 0 1 429 33)" fill="#1C1C1C"/>
<circle cx="4.5" cy="4.5" r="4.5" transform="matrix(-1 0 0 1 402 33)" fill="#1C1C1C"/>
<circle cx="4.5" cy="4.5" r="4.5" transform="matrix(-1 0 0 1 376 33)" fill="#1C1C1C"/>
<path d="M223 8.94932L233.324 10.8483L226.036 17.8804L236.36 19.7794L229.072 26.8116L239.309 28.4554" stroke="black"/>
<path d="M180.222 51.7837C179.562 52.6698 179.746 53.9227 180.632 54.5821L182.9 56.2693C183.786 56.9287 183.97 58.1816 183.31 59.0678L182.244 60.5C181.585 61.3862 180.332 61.57 179.446 60.9106L177.179 59.2235C176.292 58.5641 175.039 58.7479 174.38 59.634L172.095 62.7044C171.436 63.5906 170.183 63.7744 169.297 63.115L167.447 61.7385C166.561 61.0792 166.377 59.8262 167.037 58.9401L169.321 55.8697C169.981 54.9835 169.797 53.7306 168.911 53.0712L166.627 51.3721C165.741 50.7127 165.557 49.4598 166.217 48.5736L167.282 47.1414C167.942 46.2552 169.195 46.0714 170.081 46.7308L172.364 48.4299C173.25 49.0893 174.503 48.9055 175.163 48.0193L177.316 45.1256C177.975 44.2395 179.228 44.0556 180.114 44.715L181.964 46.0915C182.85 46.7509 183.034 48.0038 182.375 48.89L180.222 51.7837Z" fill="black"/>
<path d="M100.3 342.679C99.3221 337.6 96.8604 332.925 93.226 329.245C89.5915 325.566 84.9475 323.047 79.8813 322.006C74.8151 320.966 69.5541 321.451 64.7637 323.401C59.9733 325.351 55.8687 328.677 52.9688 332.959C50.0689 337.242 48.504 342.288 48.4721 347.46C48.4401 352.632 49.9425 357.697 52.7893 362.015C55.636 366.333 59.6993 369.71 64.4652 371.719C69.2311 373.727 74.4857 374.278 79.5644 373.3L74.6214 347.622L100.3 342.679Z" fill="#007F4F"/>
<path d="M211 196.145C199.952 181.904 171.487 189.618 172.007 213.353C172.657 243.021 223.226 228.367 205.801 205.639C196.703 193.772 179.156 208.606 187.604 215.726" stroke="black"/>
<path d="M121 244.5L210 336.5" stroke="black" stroke-width="2" stroke-linecap="round"/>
<circle cx="501.5" cy="18.5" r="6.5" stroke="black"/>
<path d="M116.139 439.682L121.37 445.883C121.785 446.375 122.469 446.546 123.063 446.302L130.51 443.248C130.943 443.07 131.365 443.557 131.114 443.967L126.9 450.853C126.565 451.401 126.62 452.105 127.035 452.597L132.266 458.797C132.58 459.169 132.236 459.706 131.783 459.594L123.947 457.65C123.323 457.495 122.672 457.762 122.336 458.31L118.122 465.197C117.879 465.594 117.257 465.453 117.219 464.969L116.59 456.881C116.54 456.239 116.086 455.699 115.462 455.544L107.626 453.6C107.16 453.484 107.118 452.841 107.551 452.664L114.998 449.609C115.593 449.366 115.959 448.764 115.909 448.122L115.281 440.034C115.244 439.558 115.831 439.317 116.139 439.682ZM116.708 439.2C115.932 438.281 114.444 438.891 114.537 440.091L115.165 448.179C115.19 448.5 115.007 448.797 114.715 448.917L107.267 451.972C106.157 452.427 106.291 454.038 107.448 454.325L115.284 456.27C115.593 456.347 115.821 456.616 115.846 456.937L116.475 465.025C116.567 466.216 118.129 466.617 118.759 465.588L122.973 458.702C123.139 458.431 123.46 458.299 123.769 458.375L131.605 460.32C132.776 460.61 133.606 459.228 132.836 458.315L127.604 452.115C127.397 451.869 127.37 451.517 127.536 451.245L131.75 444.358C132.373 443.341 131.336 442.1 130.226 442.556L122.779 445.61C122.486 445.73 122.147 445.647 121.939 445.401L116.708 439.2Z" fill="black" stroke="black" stroke-width="0.5"/>
<path d="M266 244.5L376 391" stroke="black"/>
<path d="M253 260L363 406.5" stroke="black"/>
<path d="M281 231L391 377.5" stroke="black"/>
<path d="M315 239L411 368" stroke="black"/>
<path d="M328 222L424 351" stroke="black"/>
<path d="M340 200L436 329" stroke="black"/>
<path d="M178.5 384C188 395 212.5 414 234.5 402" stroke="black"/>
<path d="M264.5 138C255.667 137.667 235.9 134.6 227.5 125" stroke="white"/>
<path d="M270 130C261.167 129.667 241.4 126.6 233 117" stroke="white"/>
<path d="M289 124C280.167 123.667 244.4 116.6 236 107" stroke="white"/>
<path d="M95 108L111.5 155.5" stroke="black"/>
<path d="M489.5 183.14H489.501C513.038 183.112 532.112 164.038 532.14 140.501V140.5C532.14 116.951 513.049 97.8604 489.5 97.8604C465.951 97.8604 446.86 116.951 446.86 140.5C446.86 164.049 465.951 183.14 489.5 183.14ZM444.5 140.5C444.5 115.647 464.647 95.5002 489.5 95.5C514.341 95.5276 534.473 115.659 534.5 140.501C534.5 165.353 514.353 185.5 489.5 185.5C464.647 185.5 444.5 165.353 444.5 140.5Z" fill="#1C1C1C" stroke="white"/>
<path d="M490.772 144.64C490.124 143.732 489.344 142.922 488.459 142.236C487.201 141.182 486.333 140.476 485.617 134.255C485.315 131.652 484.737 129 482.737 129C480.738 129 479.518 131.826 478.651 134.23C478.548 134.411 478.421 134.577 478.273 134.726C477.974 134.355 477.744 133.936 477.594 133.486L477.33 132.867L476.664 132.743C476.203 132.664 475.736 132.627 475.268 132.631C473.001 132.589 470.848 133.604 469.459 135.37C469.06 135.613 468.593 135.726 468.126 135.692C467.922 135.611 467.704 135.569 467.484 135.568C466.227 135.568 465.825 136.708 465.535 137.452C465.032 138.691 464.731 139.162 463.888 139.162C461.921 139.086 460.041 139.966 458.858 141.517C457.885 143.014 457.729 144.89 458.443 146.524L458.72 147.23C459.73 149.425 460.277 151.798 460.33 154.207C460.273 155.842 461.572 157.213 463.231 157.268C463.299 157.271 463.367 157.271 463.435 157.268C465.95 157.268 469.232 154.963 471.194 152.683C471.668 152.03 472.418 151.625 473.231 151.58C474.486 151.74 475.599 152.451 476.261 153.513C476.978 155.025 481.165 158 484.51 158C485.289 158.009 486.06 157.839 486.761 157.504C489.239 156.054 491.014 153.675 491.678 150.911C492.322 148.791 491.991 146.499 490.772 144.64Z" fill="#1C1C1C"/>
<path d="M479.742 164.959L479.742 164.959L479.751 164.959C480.615 164.966 481.473 165.115 482.289 165.4L482.729 165.566L482.921 165.929C483.665 167.467 483.53 169.285 482.568 170.697L482.558 170.712L482.549 170.727C481.689 172.207 480.162 173.173 478.458 173.318C477.866 173.313 477.193 173.094 476.655 172.571C476.116 172.048 475.672 171.182 475.617 169.816L475.616 169.8L475.615 169.783C475.474 168.459 475.889 167.137 476.759 166.13C477.555 165.353 478.63 164.931 479.742 164.959ZM477.993 170.618L478.151 171.035L478.584 170.926C479.419 170.715 480.136 170.177 480.572 169.434L480.56 169.427C480.859 168.925 480.993 168.342 480.942 167.76L480.905 167.341L480.487 167.305C480.215 167.281 479.941 167.28 479.669 167.302C479.203 167.272 478.741 167.408 478.365 167.687L478.291 167.742L478.242 167.819C477.88 168.384 477.733 169.059 477.827 169.721C477.829 170.028 477.885 170.331 477.993 170.618Z" fill="#1C1C1C" stroke="white"/>
<path d="M492.65 113.682L492.696 114.024L493.031 114.103C494.048 114.343 495.299 114.713 496.387 115.287C497.48 115.864 498.337 116.608 498.689 117.561C499.126 118.904 498.732 120.379 497.683 121.327L497.66 121.348L497.639 121.373C496.656 122.52 495.216 123.176 493.704 123.164V123.164H493.7C492.24 123.164 490.756 122.614 489.42 121.868C488.089 121.126 486.943 120.21 486.168 119.525L485.907 119.295L485.6 119.46C484.816 119.882 483.942 120.109 483.051 120.122C480.728 119.903 478.667 118.54 477.557 116.487L477.431 116.254L477.168 116.227C476.205 116.129 474.767 115.903 473.427 115.39C472.082 114.875 470.918 114.102 470.366 112.961C469.727 111.364 470.083 109.54 471.277 108.301L471.306 108.271L471.33 108.236C472.53 106.476 474.516 105.416 476.645 105.396C479.228 105.605 481.676 106.639 483.626 108.347L483.765 108.469L483.951 108.471C487.698 108.504 490.204 109.478 491.58 111.191L491.581 111.191C492.158 111.908 492.529 112.77 492.65 113.682ZM496.399 118.326C496.329 118.185 496.226 118.069 496.128 117.975C496.004 117.858 495.853 117.749 495.69 117.647C495.364 117.444 494.945 117.247 494.479 117.067C493.552 116.708 492.383 116.397 491.264 116.248C490.656 116.117 490.254 115.535 490.347 114.918L490.349 114.907L490.35 114.895C490.428 114.16 490.208 113.423 489.74 112.851C489.223 112.185 488.4 111.724 487.394 111.427C486.381 111.128 485.137 110.982 483.72 110.982H483.401V110.982L483.393 110.982C483.087 110.987 482.791 110.874 482.568 110.665C480.981 109.152 478.952 108.187 476.776 107.912L476.743 107.907L476.709 107.908C475.318 107.919 474.026 108.627 473.268 109.792C472.968 110.158 472.737 110.53 472.601 110.876C472.471 111.204 472.383 111.616 472.544 111.973L472.548 111.981L472.551 111.988C472.727 112.346 473.091 112.615 473.459 112.816C473.846 113.029 474.327 113.214 474.845 113.37C475.883 113.683 477.138 113.895 478.253 113.948L478.255 113.948C478.687 113.966 479.075 114.221 479.264 114.61C479.267 114.617 479.27 114.623 479.272 114.627C479.277 114.638 479.283 114.651 479.29 114.664C479.303 114.69 479.322 114.726 479.345 114.769C479.391 114.856 479.458 114.976 479.545 115.119C479.717 115.402 479.968 115.781 480.287 116.162C480.901 116.894 481.87 117.762 483.082 117.762H483.097L483.113 117.761C483.956 117.708 484.757 117.38 485.395 116.828C485.868 116.48 486.527 116.533 486.939 116.954C487.451 117.492 488.494 118.435 489.717 119.248C490.921 120.048 492.39 120.785 493.73 120.787C494.188 120.793 494.634 120.686 495.032 120.482V120.823L495.908 119.827C496.17 119.528 496.341 119.268 496.43 119.044C496.474 118.933 496.507 118.804 496.504 118.67C496.502 118.575 496.479 118.445 496.399 118.326Z" fill="#1C1C1C" stroke="white"/>
<path d="M522.309 154.011L522.309 154.012C522.742 155.348 522.483 156.87 521.738 158.483C520.995 160.092 519.796 161.731 518.449 163.259C515.758 166.311 512.55 168.835 511.461 169.673C511.348 169.757 511.22 169.821 511.085 169.86L511.085 169.86L511.078 169.862C510.301 170.102 509.493 170.23 508.68 170.244L508.67 170.244L508.66 170.244C508.637 170.246 508.613 170.247 508.59 170.248C506.401 170.335 504.555 168.632 504.466 166.443C504.459 166.122 504.583 165.813 504.809 165.585C504.809 165.585 504.809 165.585 504.809 165.585L507.732 162.645L507.899 162.477L507.875 162.241L507.539 158.983C507.539 158.982 507.539 158.982 507.539 158.982C507.535 158.942 507.533 158.9 507.533 158.858C507.536 158.207 508.067 157.681 508.719 157.684V157.684H508.722H511.729H511.913L512.052 157.566C513.487 156.35 514.807 155.007 515.997 153.552L516.036 153.505L516.063 153.449C516.683 152.132 517.92 151.213 519.358 150.997C519.797 151.003 520.307 151.121 520.807 151.517C521.326 151.928 521.876 152.673 522.309 154.011ZM510.112 167.698L510.206 167.673L510.283 167.614C512.585 165.873 515.231 163.449 517.197 161.11C518.179 159.942 519.006 158.778 519.533 157.717C520.047 156.684 520.332 155.64 520.054 154.769C519.949 154.415 519.806 154.072 519.626 153.749L519.296 153.155L518.827 153.647C518.534 153.955 518.275 154.294 518.056 154.658L517.936 154.855L517.939 154.864C516.506 156.613 514.905 158.217 513.159 159.655L513.152 159.66L513.146 159.666C512.931 159.855 512.654 159.96 512.367 159.961C512.367 159.961 512.367 159.961 512.367 159.961L510.587 159.961H510.03L510.089 160.514L510.324 162.712C510.324 162.713 510.324 162.713 510.325 162.713C510.36 163.067 510.234 163.418 509.982 163.668L509.98 163.67L507.124 166.543L506.812 166.857L507.085 167.205C507.476 167.701 508.093 167.963 508.72 167.899C509.19 167.888 509.658 167.82 510.112 167.698Z" fill="#1C1C1C" stroke="white"/>
<path d="M226 453.484L260.314 485.79" stroke="black"/>
<path d="M504 215.484L538.314 247.79" stroke="black"/>
<path d="M390 472.484L424.314 504.79" stroke="black"/>
<path d="M491 37.4839L525.314 69.7896" stroke="black"/>
</svg>
