<svg width="577" height="538" viewBox="0 0 577 538" fill="none" xmlns="http://www.w3.org/2000/svg">
<path d="M234.126 40.4178C234.131 40.4133 234.135 40.4104 234.141 40.4059L239.818 36.0586C244.323 32.6082 244.83 28.7506 241.338 24.4857C239.978 22.8258 238.338 21.888 236.415 21.6721C234.474 21.4331 232.526 22.0621 230.572 23.5591C228.974 24.7823 227.948 26.2998 227.492 28.1117V28.1117C226.85 30.7789 226.692 34.1819 224.479 35.8771L222.461 37.4219C219.134 39.9703 213.993 39.3783 213.185 35.3231C213.047 34.6283 212.959 33.9188 212.92 33.1946C212.747 29.9514 213.535 26.722 215.285 23.5064C217.04 20.2495 219.538 17.3796 222.78 14.8968C228.573 10.4606 234.174 8.25324 239.583 8.27462C244.992 8.29599 249.528 10.5429 253.19 15.0153C254.964 17.1823 255.953 19.7635 256.156 22.7588C256.266 24.3219 256.118 25.9204 255.71 27.5542C255.285 29.2572 256.996 31.166 258.801 31.0259C260.633 30.8836 262.413 31.0226 264.14 31.4427C267.318 32.1974 270.096 34.0271 272.475 36.9318C276.156 41.4273 277.313 46.3928 275.946 51.8285C274.579 57.2641 270.987 62.2092 265.17 66.6636C261.761 69.2742 258.081 71.0798 254.129 72.0804C250.183 73.0396 246.552 72.9878 243.238 71.9247C240.523 71.0399 238.143 69.5743 236.098 67.528C235.315 66.7441 235.467 65.4978 236.344 64.8263L245.29 57.9751C246.167 57.3036 247.429 57.4899 248.357 58.1082C249.399 58.803 250.645 59.1976 252.094 59.2917C254.306 59.4355 256.354 58.7863 258.237 57.3441C260.359 55.7193 261.589 53.8584 261.927 51.7612C262.247 49.6409 261.68 47.6932 260.226 45.9181C258.149 43.3822 256.021 42.0861 253.842 42.0297C251.662 41.9733 249.416 42.8305 247.104 44.6013L241.411 48.961C241.297 49.0483 241.194 49.1471 241.092 49.2471C240.435 49.8901 237.652 52.1331 234.132 48.0826C230.19 43.5461 233.944 40.558 234.126 40.4178Z" fill="#673AB7"/>
<path d="M219.322 21.5985C221.704 17.4228 230.221 9.76253 245.23 12.5271" stroke="white"/>
<rect width="125.625" height="51.6332" transform="matrix(0.976623 -0.214961 0.229097 0.973404 194.918 66.637)" fill="white"/>
<rect width="97.5235" height="45.699" rx="8" transform="matrix(0.982177 -0.187961 0.200476 0.979699 121.937 110.885)" fill="#3CCC95"/>
<path d="M128.273 122.824L198.349 109.093" stroke="#1C1C1C" stroke-linecap="round"/>
<path d="M129.647 133.897L199.723 120.166" stroke="#1C1C1C" stroke-linecap="round"/>
<path d="M283.171 190.254L353.248 176.523" stroke="#1C1C1C" stroke-linecap="round"/>
<path d="M311.535 120.078L317.168 119.015C321.502 118.197 325.725 121.032 326.609 125.353L332.567 154.469C333.453 158.798 330.653 162.98 326.314 163.81L260.611 176.384C256.271 177.214 252.035 174.379 251.15 170.05L245.218 141.063C244.324 136.692 247.187 132.48 251.581 131.702L259.459 130.307" stroke="#1C1C1C" stroke-width="3"/>
<rect x="1.77398" y="1.18761" width="94.5235" height="42.699" rx="6.5" transform="matrix(0.982177 -0.187961 0.200476 0.979699 111.844 107.52)" stroke="#1C1C1C" stroke-width="3"/>
<path d="M338.018 165.684L338.913 173.545L338.515 173.626C335.046 174.876 327.961 177.083 327.372 175.916C326.783 174.75 327.946 172.849 328.601 172.044L333.411 167.435L332.904 165.126L335.351 163.014L338.077 164.063L338.018 165.684Z" fill="white"/>
<path d="M358.23 222.193C358.439 221.72 358.447 221.164 358.29 220.67C358.136 220.173 357.828 219.738 357.43 219.402C357.041 219.043 356.526 218.849 355.973 218.728C355.409 218.656 354.79 218.711 354.186 218.933C353.595 219.197 353.083 219.604 352.686 220.065C352.596 220.19 352.512 220.315 352.428 220.441L352.211 220.831L352.035 221.23L351.925 221.646C351.798 222.194 351.803 222.755 351.957 223.253C352.108 223.748 352.424 224.175 352.846 224.389C352.923 223.887 353.08 223.496 353.249 223.165C353.422 222.833 353.607 222.559 353.805 222.323L353.963 222.159L354.106 222.006L354.255 221.872L354.41 221.758C354.591 221.597 354.78 221.492 354.962 221.443C355.13 221.35 355.333 221.29 355.564 221.283C355.805 221.228 356.056 221.271 356.347 221.285C356.631 221.325 356.928 221.404 357.242 221.537C357.56 221.668 357.896 221.858 358.23 222.193Z" fill="#1C1C1C"/>
<path d="M109.542 220.557L86.5015 107.963C85.6157 103.635 88.4155 99.4524 92.7551 98.6219L338.393 51.6139C342.598 50.8091 346.734 53.45 347.776 57.6055L372.297 155.398M178.49 233.219L345.316 201.293" stroke="#1C1C1C" stroke-width="3"/>
<path d="M67.5072 222.675L61.9789 225.356C60.689 225.982 58.778 225.549 57.9045 223.253L56.3757 219.234C55.6477 217.321 54.0712 216.046 52.0874 215.421C47.7513 214.351 44.6369 211.329 43.0353 207.119C40.4533 199.758 43.9819 191.246 50.7273 187.747C54.2285 186.049 58.055 185.779 61.3969 187.105C64.7389 188.431 67.5234 191.16 68.9066 194.796C70.4353 198.814 70.2328 203.446 68.0465 207.453C66.8976 209.597 66.777 212.149 67.505 214.062L69.1793 218.464C69.7617 219.994 68.9814 221.96 67.5072 222.675V222.675ZM51.6395 189.572C45.7427 192.432 42.7329 200.012 44.8781 206.225C46.2612 209.861 49.0458 212.59 52.6107 213.354C55.2929 214.093 57.2721 215.853 58.2185 218.34L59.7472 222.359C59.8928 222.742 60.3296 223.89 61.251 223.443L66.7792 220.761C67.332 220.493 67.555 219.931 67.3366 219.357L65.6622 214.956C64.7159 212.469 64.9866 209.164 66.3585 206.458C68.1375 203.102 68.3742 199.134 67.0638 195.69C65.8991 192.628 63.7015 190.294 60.6166 189.07C57.7888 187.949 54.5879 188.141 51.6395 189.572V189.572Z" fill="black"/>
<path d="M67.2861 216.332L58.2968 220.625C57.7575 220.882 57.2559 220.687 57.0428 220.135C56.8297 219.584 57.0473 219.044 57.5866 218.787L66.5758 214.494C67.1152 214.236 67.6168 214.432 67.8299 214.984C68.0429 215.535 67.8254 216.074 67.2861 216.332Z" fill="black"/>
<path d="M48.9509 183.337C48.389 183.607 47.8665 183.401 47.6445 182.822L46.1647 178.956C45.9427 178.377 46.1693 177.81 46.7312 177.539C47.2931 177.268 47.8157 177.474 48.0376 178.054L49.5175 181.919C49.7394 182.499 49.5128 183.066 48.9509 183.337Z" fill="black"/>
<path d="M63.0444 183.188C62.8612 183.277 62.4948 183.455 62.2393 183.354C61.7282 183.151 61.5111 182.58 61.7327 182.021L63.2841 178.113C63.5058 177.554 64.0553 177.287 64.5664 177.49C65.0775 177.693 65.2946 178.264 65.0729 178.822L63.5215 182.731C63.5215 182.731 63.2275 183.099 63.0444 183.188V183.188Z" fill="black"/>
<path d="M76.8453 192.201L73.233 193.94C72.6911 194.201 72.1872 194.003 71.9732 193.444C71.7591 192.886 71.9777 192.339 72.5195 192.078L76.1318 190.339C76.6736 190.078 77.1776 190.276 77.3916 190.835C77.6056 191.394 77.3871 191.94 76.8453 192.201Z" fill="black"/>
<path d="M76.9778 210.859C76.7946 210.948 76.4282 211.126 76.1727 211.025L72.5951 209.605C72.084 209.402 71.8669 208.831 72.0885 208.273C72.3101 207.715 72.8597 207.448 73.3708 207.651L76.9484 209.07C77.4595 209.273 77.6766 209.844 77.4549 210.402C77.5273 210.593 77.3441 210.682 76.9778 210.859Z" fill="black"/>
<path d="M47.948 224.526C47.7649 224.615 47.3985 224.792 47.143 224.691C46.6319 224.488 46.4148 223.917 46.6364 223.359L48.1878 219.45C48.4094 218.892 48.959 218.625 49.4701 218.828C49.9811 219.031 50.1982 219.602 49.9766 220.16L48.4252 224.069C48.3144 224.348 48.1312 224.437 47.948 224.526V224.526Z" fill="black"/>
<path d="M39.2933 209.826L35.681 211.566C35.1391 211.827 34.6352 211.628 34.4212 211.07C34.2071 210.511 34.4257 209.965 34.9675 209.704L38.5798 207.964C39.1216 207.703 39.6256 207.902 39.8396 208.46C40.0536 209.019 39.8351 209.565 39.2933 209.826Z" fill="black"/>
<path d="M39.1432 194.364C38.9598 194.453 38.5932 194.631 38.3375 194.53L34.6849 192.918C34.1734 192.715 33.9562 192.144 34.178 191.585C34.3998 191.026 34.9497 190.759 35.4611 190.962L39.0413 192.383C39.5528 192.586 39.77 193.158 39.5482 193.716C39.4374 193.996 39.3265 194.275 39.1432 194.364V194.364Z" fill="black"/>
<path d="M63.4216 198.347C62.8718 198.614 62.3605 198.411 62.1434 197.84C60.7679 194.223 56.6778 192.599 53.1961 194.289C52.6464 194.556 52.1351 194.353 51.9179 193.782C51.7008 193.211 51.9225 192.652 52.4722 192.385C57.0533 190.162 62.1661 192.191 63.9758 196.95C64.193 197.521 63.9713 198.08 63.4216 198.347Z" fill="black"/>
<g clip-path="url(#clip0_42_3)">
<path d="M193.548 157.372C179.115 157.372 167.415 169.072 167.415 183.505C167.415 197.938 179.115 209.638 193.548 209.638C207.981 209.638 219.681 197.938 219.681 183.505C219.665 169.079 207.974 157.388 193.548 157.372ZM193.548 207.708C180.181 207.708 169.345 196.872 169.345 183.505C169.345 170.138 180.181 159.302 193.548 159.302C206.915 159.302 217.751 170.138 217.751 183.505C217.735 196.865 206.908 207.692 193.548 207.708Z" fill="#1C1C1C"/>
<path d="M198.325 186.863C197.827 186.156 197.229 185.526 196.549 184.991C195.584 184.171 194.918 183.621 194.368 178.776C194.137 176.75 193.693 174.685 192.158 174.685C190.624 174.685 189.688 176.885 189.022 178.757C188.943 178.898 188.846 179.028 188.733 179.143C188.503 178.855 188.327 178.528 188.211 178.178L188.009 177.696L187.497 177.599C187.144 177.538 186.785 177.509 186.426 177.512C184.687 177.479 183.034 178.27 181.968 179.645C181.662 179.834 181.304 179.922 180.945 179.896C180.788 179.832 180.621 179.8 180.453 179.799C179.488 179.799 179.179 180.687 178.957 181.266C178.571 182.231 178.339 182.598 177.693 182.598C176.183 182.538 174.74 183.224 173.833 184.431C173.086 185.597 172.966 187.058 173.514 188.33L173.726 188.88C174.501 190.589 174.921 192.437 174.962 194.313C174.918 195.586 175.915 196.653 177.188 196.697C177.241 196.699 177.293 196.699 177.345 196.697C179.275 196.697 181.794 194.902 183.299 193.126C183.664 192.618 184.239 192.302 184.863 192.267C185.826 192.392 186.681 192.945 187.189 193.773C187.739 194.95 190.952 197.266 193.519 197.266C194.117 197.273 194.708 197.141 195.246 196.88C197.148 195.751 198.51 193.899 199.02 191.746C199.514 190.095 199.26 188.311 198.325 186.863Z" fill="#1C1C1C"/>
<path d="M190.026 197.98L189.862 197.672L189.505 197.536C189.005 197.362 188.48 197.27 187.951 197.266C187.231 197.248 186.534 197.523 186.021 198.029C185.464 198.668 185.198 199.511 185.287 200.354C185.355 202.043 186.397 202.641 187.217 202.641C188.295 202.554 189.261 201.945 189.804 201.011C190.415 200.113 190.5 198.957 190.026 197.98ZM188.173 199.978C187.961 200.339 187.613 200.599 187.208 200.702C187.155 200.563 187.129 200.416 187.131 200.267C187.081 199.948 187.15 199.622 187.324 199.351C187.49 199.227 187.696 199.169 187.903 199.187C188.05 199.174 188.199 199.174 188.347 199.187C188.371 199.463 188.307 199.74 188.163 199.978H188.173V199.978Z" fill="#1C1C1C"/>
<path d="M199.097 170.236C198.624 168.943 196.829 168.344 195.642 168.064C195.565 167.488 195.331 166.944 194.967 166.491C194.098 165.411 192.554 164.841 190.363 164.822C189.194 163.798 187.725 163.178 186.175 163.056C184.853 163.064 183.62 163.72 182.875 164.812C182.108 165.608 181.881 166.78 182.296 167.804C183.02 169.319 185.307 169.734 186.436 169.85C187.122 171.118 188.397 171.958 189.833 172.089C190.395 172.082 190.948 171.94 191.444 171.674C192.351 172.475 194.146 173.835 195.961 173.835C196.913 173.843 197.821 173.43 198.441 172.706C199.128 172.085 199.386 171.117 199.097 170.236ZM197.012 171.442V171.413C196.761 171.724 196.38 171.902 195.98 171.896C194.619 171.896 192.844 170.371 192.284 169.782C191.944 169.433 191.398 169.392 191.01 169.686C190.69 169.966 190.286 170.132 189.862 170.159C188.742 170.159 187.932 168.528 187.932 168.518C187.778 168.195 187.459 167.983 187.102 167.968C185.866 167.91 184.313 167.495 184.071 167.003C183.985 166.81 184.129 166.434 184.457 166.038C184.839 165.442 185.496 165.079 186.204 165.073C187.393 165.224 188.502 165.751 189.369 166.578C189.552 166.749 189.795 166.843 190.045 166.839H190.228C191.821 166.839 192.969 167.167 193.461 167.804C193.683 168.074 193.787 168.421 193.751 168.769C193.674 169.277 194.009 169.757 194.513 169.859C195.758 170.023 197.128 170.554 197.263 170.921C197.312 170.959 197.292 171.124 197.012 171.442Z" fill="#1C1C1C"/>
<path d="M212.665 191.177C212.144 189.565 211.295 189.247 210.677 189.247C209.747 189.378 208.945 189.97 208.545 190.82C207.872 191.642 207.126 192.401 206.315 193.088H204.588C204.055 193.085 203.621 193.515 203.618 194.048C203.618 194.082 203.62 194.116 203.623 194.149L203.816 196.021L202.137 197.71C201.951 197.897 201.85 198.151 201.857 198.415C201.913 199.831 203.107 200.934 204.524 200.878C204.539 200.877 204.554 200.876 204.569 200.875C205.063 200.867 205.553 200.789 206.026 200.644C206.137 200.611 206.242 200.559 206.335 200.489C207.589 199.524 213.785 194.632 212.665 191.177ZM205.312 198.849C205.069 198.914 204.82 198.95 204.569 198.955C204.303 198.986 204.04 198.876 203.874 198.666L205.514 197.015C205.721 196.81 205.824 196.523 205.794 196.234L205.659 194.97H206.682C206.917 194.969 207.143 194.883 207.319 194.728C208.377 193.857 209.344 192.881 210.204 191.814L210.195 191.785C210.31 191.594 210.446 191.416 210.6 191.254C210.694 191.422 210.768 191.6 210.822 191.785C211.324 193.339 207.927 196.871 205.312 198.849Z" fill="#1C1C1C"/>
</g>
<path d="M87.3636 92.3489L337.204 44.5367" stroke="#1C1C1C"/>
<path d="M88.7775 288.118C86.8291 288.273 83.0065 289.243 83.3032 291.889C83.674 295.196 109.909 359.146 75.8514 394.207" stroke="black"/>
<path d="M55.8098 312.768C55.2075 312.508 54.4991 312.457 53.8115 312.602C53.1231 312.743 52.453 313.068 51.8593 313.506C50.6758 314.379 49.7351 315.714 49.4265 317.237C49.1152 318.729 49.3324 320.264 49.8516 321.596C50.3762 322.934 51.1729 324.119 52.1455 325.118C54.0717 327.121 56.6315 328.453 59.3967 329.006C60.7812 329.281 62.223 329.366 63.6738 329.243C64.0374 329.197 64.3997 329.164 64.7617 329.111C65.1243 329.041 65.4884 328.978 65.8486 328.897L66.1178 328.827L66.252 328.79L66.2986 328.779L66.4497 328.745C66.5389 328.726 66.6394 328.683 66.7121 328.681C66.7281 328.796 66.7432 328.907 66.772 329.005L66.7801 329.044L66.7841 329.063C66.7841 329.063 66.7961 329.101 66.7654 329.032L66.8947 329.338C66.9859 329.541 67.0628 329.752 67.1745 329.936C67.5706 330.72 68.0931 331.392 68.6507 331.999C69.2201 332.624 69.8434 333.157 70.4913 333.634C71.1361 334.116 71.8026 334.546 72.4799 334.931C73.1542 335.321 73.8389 335.684 74.5149 336.024L76.5305 337.025C79.2294 338.343 82.0348 339.607 85.0558 340.489C86.5722 340.909 88.146 341.218 89.7549 341.383C91.3621 341.541 92.9812 341.543 94.5944 341.439C97.8221 341.22 100.985 340.575 104.116 339.644C110.337 337.703 116.359 334.354 121.228 329.513C122.431 328.287 123.552 326.98 124.58 325.598C125.599 324.211 126.513 322.752 127.327 321.239C128.146 319.727 128.828 318.147 129.393 316.532C129.941 314.914 130.385 313.259 130.641 311.582C130.869 310.1 131.022 308.608 130.994 307.125C131.01 306.371 130.947 305.665 130.955 305.045C130.957 304.419 131.02 303.868 131.185 303.418C131.338 302.988 131.659 302.548 132.116 302.041C132.339 301.788 132.592 301.525 132.85 301.227L133.597 300.302C134.534 299.027 135.245 297.606 135.725 296.145C136.684 293.215 136.751 290.098 135.916 287.344C135.5 285.964 134.837 284.701 133.982 283.604C133.539 283.06 133.023 282.572 132.404 282.214C131.794 281.858 131.046 281.659 130.295 281.794C129.487 281.943 128.852 282.57 128.515 283.263C128.345 283.611 128.244 284.001 128.27 284.376C128.288 284.749 128.463 285.099 128.736 285.299C128.487 285.063 128.373 284.711 128.393 284.363C128.409 284.016 128.54 283.671 128.724 283.372C129.094 282.776 129.707 282.316 130.316 282.278C130.936 282.236 131.523 282.464 132.009 282.825C132.499 283.186 132.913 283.669 133.263 284.195C133.941 285.281 134.437 286.5 134.705 287.777C135.251 290.336 134.972 293.119 133.983 295.596C133.489 296.835 132.816 297.997 131.986 299.009L131.336 299.735L130.581 300.486C130.313 300.757 130.028 301.059 129.756 301.41C129.485 301.757 129.224 302.178 129.034 302.624C128.653 303.515 128.542 304.397 128.499 305.173C128.452 305.957 128.489 306.65 128.439 307.303C128.406 308.631 128.211 309.964 127.953 311.282C127.661 312.772 127.203 314.239 126.651 315.668C126.108 317.099 125.459 318.505 124.688 319.84C123.923 321.179 123.071 322.47 122.13 323.689C121.18 324.902 120.151 326.046 119.048 327.113C114.645 331.412 109.134 334.432 103.384 336.162C100.516 337.05 97.5533 337.682 94.647 337.906C93.193 338.014 91.7479 338.029 90.3338 337.903C88.9236 337.775 87.5271 337.52 86.1484 337.156C83.3752 336.45 80.684 335.323 77.9932 334.101L75.9694 333.177C75.3045 332.871 74.6587 332.558 74.0295 332.228C73.4003 331.898 72.7983 331.543 72.2274 331.162C71.6564 330.781 71.1234 330.368 70.6587 329.913C70.2032 329.464 69.7894 328.982 69.4943 328.446C69.4062 328.317 69.3524 328.177 69.2788 328.039L69.1745 327.832C69.134 327.716 69.1354 327.704 69.1219 327.658L69.0882 327.537L69.0201 327.29C68.8261 326.637 68.6803 325.982 68.5284 325.337C67.973 325.532 67.3983 325.77 66.8424 325.981C66.5636 326.083 66.2736 326.209 65.9968 326.282L65.4564 326.451L64.5426 326.678C64.235 326.74 63.9279 326.784 63.6195 326.842C62.3821 327.015 61.125 327.018 59.898 326.855C57.4478 326.527 55.0994 325.526 53.2466 323.89C52.3193 323.088 51.5282 322.103 50.9734 320.988C50.4194 319.877 50.1237 318.605 50.2729 317.307C50.4079 316.039 51.1106 314.769 52.12 313.858C52.6247 313.403 53.2132 313.037 53.851 312.829C54.4889 312.621 55.1748 312.584 55.8098 312.768Z" fill="#1C1C1C"/>
<path d="M94.5182 341.628C94.8442 341.926 94.9294 342.384 94.8606 342.784C94.7945 343.197 94.5804 343.532 94.2819 343.771C93.9904 344.011 93.6311 344.153 93.2748 344.212C93.1863 344.226 93.0972 344.237 93.0099 344.24C92.9666 344.243 92.9226 344.243 92.8716 344.242C92.8277 344.242 92.7213 344.251 92.6493 344.246L91.6421 344.216C90.9576 344.21 90.3709 344.299 89.8777 344.496C89.6275 344.594 89.4058 344.731 89.1735 344.898C89.0583 344.978 88.9401 345.076 88.8187 345.175C88.7618 345.227 88.6853 345.281 88.6481 345.33L88.719 345.475C88.9081 345.864 89.0897 346.264 89.2638 346.678C89.2653 346.701 89.3026 346.734 89.336 346.765L89.4331 346.857L89.628 347.046L90.0216 347.425L90.8333 348.204L91.0404 348.403L91.1375 348.495L91.1935 348.553L91.4206 348.783L91.8781 349.242L92.8038 350.146C93.4296 350.746 94.0796 351.35 94.7671 351.939C96.1785 353.064 97.8155 354.12 99.8145 354.575C100.804 354.777 101.852 354.825 102.925 354.67C103.46 354.59 104 354.457 104.532 354.265C105.062 354.067 105.583 353.807 106.075 353.491C107.05 352.834 107.839 351.96 108.45 351.03C108.755 350.564 109.009 350.08 109.231 349.585C109.441 349.087 109.614 348.586 109.752 348.08C110.301 346.038 110.256 344.074 110.057 342.243C110.009 341.783 109.948 341.328 109.881 340.878L109.856 340.709L109.829 340.485C109.811 340.334 109.787 340.184 109.751 340.045C109.68 339.767 109.563 339.514 109.363 339.333C108.955 338.948 108.281 339.126 107.835 339.209C107.655 339.251 107.469 339.22 107.302 339.118C107.144 339.024 107.006 338.832 107.127 338.603C107.04 338.685 106.987 338.82 107 338.949C107.01 339.079 107.069 339.198 107.146 339.293C107.291 339.487 107.534 339.63 107.8 339.653L108.098 339.691C108.185 339.701 108.268 339.713 108.35 339.732C108.51 339.768 108.656 339.852 108.731 340C108.809 340.146 108.812 340.326 108.802 340.486C108.795 340.566 108.784 340.645 108.773 340.72C108.768 340.762 108.759 340.785 108.757 340.841L108.742 341.012L108.626 342.385C108.466 344.195 108.215 345.964 107.603 347.504C107.447 347.889 107.267 348.259 107.063 348.612C106.87 348.968 106.657 349.307 106.417 349.617C105.94 350.235 105.392 350.749 104.786 351.09C103.607 351.826 102.078 351.952 100.655 351.618C99.2229 351.348 97.8511 350.575 96.5527 349.603C95.8842 349.138 95.2336 348.613 94.5695 348.071L93.5626 347.264L93.0535 346.866L92.796 346.669L92.7319 346.621C92.712 346.607 92.7165 346.612 92.7088 346.608L92.6724 346.595C92.4848 346.506 92.224 346.359 91.8516 346.129L91.7817 346.086C91.7784 346.07 91.7916 346.053 91.7946 346.035C91.8077 346 91.8245 345.967 91.8459 345.94C91.8874 345.88 91.9418 345.832 92.0052 345.795C92.1351 345.721 92.2953 345.678 92.4949 345.63C92.5947 345.606 92.7041 345.579 92.8248 345.542C92.8636 345.533 92.8686 345.525 92.9367 345.511C92.9983 345.498 93.0657 345.481 93.1324 345.46C93.2665 345.422 93.3955 345.375 93.5262 345.321C94.0352 345.103 94.5125 344.764 94.8547 344.296C95.2034 343.844 95.3741 343.235 95.2967 342.734C95.2269 342.237 94.9372 341.788 94.5182 341.628Z" fill="#1C1C1C"/>
<path d="M110.762 341.139C112.128 340.746 113.518 340.483 114.86 340.36C115.111 340.345 115.344 340.341 115.556 340.341L115.711 340.345C115.722 340.348 115.741 340.339 115.744 340.352L115.747 340.4L115.749 340.496L115.762 340.856L115.774 341.192C115.772 341.231 115.783 341.335 115.791 341.423L115.812 341.693C115.833 342.058 115.902 342.404 115.945 342.764C116.328 345.616 117.04 348.372 117.859 351.05C118.651 353.743 119.623 356.331 120.456 358.942C121.336 361.532 122.129 364.134 122.648 366.784C122.716 367.113 122.798 367.441 122.859 367.772L123.021 368.769C123.073 369.102 123.142 369.431 123.177 369.767L123.223 370.207C123.227 370.206 123.227 370.206 123.231 370.208C123.234 370.207 123.236 370.217 123.236 370.22L123.238 370.23C123.246 370.231 123.209 370.239 123.197 370.243L122.97 370.306L122.853 370.339L122.341 370.467L121.311 370.725L117.203 371.854L115.153 372.437L113.111 373.058C107.664 374.711 102.254 376.571 96.9383 378.807C102.494 377.796 107.992 376.588 113.482 375.376L115.543 374.932L117.6 374.466L121.715 373.553L124.17 372.983L125.998 372.557L126.227 372.503L126.342 372.477C126.37 372.482 126.353 372.45 126.356 372.428L126.349 372.364L126.303 371.845L126.211 370.802L126.067 369.131C126.035 368.763 125.967 368.403 125.919 368.04L125.762 366.952C125.705 366.592 125.625 366.239 125.554 365.883C124.94 363.052 124.055 360.356 123.103 357.734C122.101 355.134 121.075 352.583 120.044 350.058C119.038 347.522 118.1 344.968 117.374 342.327C117.285 341.997 117.176 341.671 117.107 341.335L116.984 340.795L116.834 340.086L116.681 339.413L116.643 339.247L116.623 339.167C116.614 339.142 116.569 339.17 116.544 339.167L116.183 339.231C115.708 339.32 115.251 339.414 114.814 339.522C113.395 339.908 112.046 340.449 110.762 341.139Z" fill="#1C1C1C"/>
<path d="M127.178 349.688C129.979 358.776 132.865 367.859 134.528 377.285C135.385 381.98 135.805 386.791 136.39 391.617C136.945 396.445 137.836 401.273 139.146 405.912C141.72 415.231 145.733 423.873 149.868 432.308C151.96 436.519 154.107 440.681 156.171 444.873L157.691 448.003C157.912 448.484 158.074 448.935 158.121 449.296C158.145 449.476 158.141 449.623 158.122 449.747C158.097 449.874 158.068 449.966 157.996 450.1C157.742 450.62 156.608 451.571 155.746 452.392C155.301 452.819 154.825 453.214 154.366 453.621L153.67 454.23L152.959 454.819C145.432 461.166 136.812 466.096 127.75 469.177L126.911 469.462C126.634 469.555 126.336 469.662 126.115 469.724C125.885 469.792 125.689 469.828 125.566 469.832C125.502 469.838 125.463 469.832 125.441 469.825L125.409 469.818C125.404 469.813 125.393 469.809 125.392 469.806C125.38 469.799 125.367 469.782 125.347 469.754C125.308 469.697 125.253 469.599 125.206 469.454C125.156 469.313 125.109 469.139 125.062 468.942L124.912 468.289L124.306 465.651L123.075 460.296L120.156 447.408L120.105 447.177L117.905 460.46L117.265 464.425C117.164 465.03 117.075 465.68 116.968 466.193C116.856 466.715 116.701 467.111 116.483 467.37C116.258 467.648 115.852 467.928 115.349 468.192C114.83 468.461 114.27 468.712 113.731 468.97L112.917 469.358C112.644 469.485 112.378 469.627 112.096 469.728L110.426 470.39L109.59 470.723L108.739 470.998L107.035 471.545C106.753 471.643 106.464 471.712 106.176 471.784L105.313 472.001C104.736 472.138 104.161 472.306 103.583 472.42C101.264 472.87 98.9276 473.238 96.5897 473.332C87.2379 473.889 77.9371 471.473 70.3406 466.292C73.9384 469.152 78.0804 471.335 82.5149 472.787C86.9475 474.264 91.6988 474.905 96.5041 474.843C98.9096 474.843 101.331 474.553 103.746 474.171C104.349 474.074 104.951 473.921 105.551 473.797L106.453 473.6C106.753 473.535 107.057 473.475 107.354 473.379L109.143 472.865L110.039 472.604L110.919 472.285L112.682 471.643C112.978 471.544 113.263 471.407 113.554 471.282L114.417 470.898C114.996 470.635 115.567 470.402 116.151 470.116C116.739 469.815 117.431 469.436 118.036 468.751C118.336 468.407 118.574 468.01 118.739 467.628C118.907 467.246 119.016 466.874 119.102 466.524C119.265 465.817 119.352 465.24 119.471 464.622L120.095 461.243C120.211 460.727 120.305 460.346 120.375 460.106L120.381 460.135C120.465 460.606 120.531 460.989 120.578 461.284L121.695 466.501L122.262 469.151L122.405 469.823C122.459 470.064 122.524 470.329 122.617 470.61C122.709 470.89 122.838 471.198 123.04 471.507C123.145 471.663 123.263 471.817 123.409 471.959C123.561 472.11 123.728 472.232 123.905 472.341C124.14 472.477 124.404 472.575 124.668 472.632C124.927 472.687 125.178 472.703 125.407 472.695C125.868 472.68 126.263 472.592 126.608 472.498C126.963 472.402 127.236 472.307 127.53 472.212L128.403 471.927C137.842 468.773 146.825 463.699 154.704 457.125L155.44 456.507L156.161 455.869C156.639 455.438 157.128 455.026 157.593 454.579L159.001 453.254C159.472 452.788 160.053 452.235 160.523 451.383C160.756 450.963 160.935 450.452 161.01 449.966C161.091 449.475 161.076 449.006 161.016 448.587C160.891 447.749 160.613 447.088 160.347 446.503L158.772 443.31C156.67 439.102 154.498 434.951 152.39 430.779C148.129 422.468 144.137 414.01 141.371 405.022C139.987 400.525 139.004 395.906 138.316 391.147C137.597 386.401 137.012 381.558 135.957 376.84C133.9 367.409 130.557 358.513 127.178 349.688Z" fill="#1C1C1C"/>
<path d="M129.532 463.698C131.611 463.74 133.673 463.353 135.68 462.738C136.183 462.587 136.682 462.415 137.178 462.234L138.651 461.642L140.085 460.948L141.503 460.21L142.863 459.359L144.197 458.467L145.472 457.483L146.093 456.969L146.696 456.431C148.29 454.986 149.739 453.36 150.861 451.483C148.958 452.503 147.211 453.578 145.464 454.627L144.8 455.004L144.155 455.406L142.849 456.17L141.557 456.948L140.242 457.685L138.943 458.448L137.621 459.17L136.3 459.907C135.854 460.139 135.406 460.376 134.967 460.639C133.189 461.618 131.379 462.576 129.532 463.698Z" fill="#1C1C1C"/>
<path d="M76.7462 463.682C78.6909 465.175 80.9311 466.224 83.253 467.01C83.8318 467.21 84.4192 467.387 85.014 467.552L86.8025 468.003L88.6206 468.339L90.4465 468.633L92.2906 468.808L94.1376 468.947L95.9942 468.989L96.921 468.996L97.8545 468.97C100.338 468.901 102.826 468.677 105.341 468.151C102.97 467.438 100.572 467.019 98.1803 466.652L97.2872 466.504L96.3907 466.387L94.6046 466.138L92.8162 465.927L91.0409 465.682L89.2608 465.478L87.4917 465.231L85.719 464.998C85.1326 464.904 84.5436 464.815 83.9468 464.751C81.5754 464.415 79.2193 464.024 76.7462 463.682Z" fill="#1C1C1C"/>
<path d="M115.877 340.236C120.728 340.643 125.562 340.884 130.382 341.155C132.789 341.32 135.201 341.408 137.604 341.582L138.01 341.601L138.212 341.612C138.261 341.614 138.233 341.612 138.244 341.616L138.248 341.618L138.281 341.628L138.281 341.663L138.279 341.671C138.281 341.677 138.272 341.652 138.293 341.736L138.375 342.082L138.711 343.472L139.384 346.252L141.274 353.373L141.779 355.142C141.942 355.73 142.127 356.337 142.26 356.865C142.395 357.4 142.474 357.897 142.453 358.324C142.443 358.755 142.352 359.099 142.116 359.517C141.88 359.924 141.518 360.349 141.096 360.769C140.668 361.194 140.191 361.631 139.73 362.045C138.793 362.882 137.811 363.671 136.794 364.421C134.764 365.925 132.588 367.241 130.295 368.389C132.738 367.845 135.167 366.936 137.467 365.693C138.618 365.071 139.743 364.377 140.823 363.6C141.368 363.208 141.886 362.821 142.424 362.379C142.96 361.931 143.514 361.414 143.998 360.732C144.237 360.39 144.456 360.006 144.617 359.587C144.781 359.168 144.883 358.73 144.934 358.314C145.024 357.473 144.924 356.725 144.803 356.057C144.673 355.382 144.532 354.803 144.4 354.198L143.998 352.394L142.259 345.219L140.555 338.766L137.957 338.677C135.511 338.67 133.067 338.644 130.611 338.762C125.71 338.944 120.791 339.372 115.877 340.236Z" fill="#1C1C1C"/>
<path d="M83.004 350.27C79.3893 354.016 75.998 357.937 72.6849 361.918C71.0077 363.892 69.4133 365.932 67.7774 367.938L65.73 370.58L68.1462 373.456L69.8085 375.454L74.4747 380.789L76.8585 383.409L78.0517 384.717L79.2715 386.003L79.8922 386.656C80.1129 386.885 80.3631 387.122 80.649 387.348C80.9408 387.569 81.2795 387.782 81.6931 387.923C82.1036 388.065 82.5907 388.109 83.0505 388.023C83.511 387.939 83.9158 387.754 84.257 387.547C84.5983 387.34 84.8923 387.106 85.1564 386.877C85.6708 386.42 86.1313 385.987 86.6065 385.525C88.4848 383.702 90.2214 381.731 91.7801 379.636C89.7966 381.303 87.7895 382.89 85.7391 384.386C84.7364 385.091 83.5807 386.044 82.9651 386.015C82.8164 386.015 82.6954 385.983 82.5557 385.911C82.4168 385.842 82.2604 385.723 82.103 385.565C81.7862 385.258 81.4537 384.791 81.0813 384.316L79.998 382.904L78.8921 381.517L76.6739 378.744L72.1332 373.296L70.4212 371.342L69.5671 370.365L69.513 370.305C69.4991 370.289 69.5084 370.3 69.5038 370.294L69.4998 370.292L69.488 370.285L69.4637 370.268L69.4796 370.228L69.4841 370.216L69.6246 370.026L69.9364 369.611C71.448 367.507 72.9971 365.432 74.4633 363.293C77.4354 359.054 80.3311 354.748 83.004 350.27Z" fill="#1C1C1C"/>
<path d="M52.0607 305.728C53.745 309.215 55.651 312.934 58.9522 314.567C59.4346 314.805 59.9817 314.995 60.4889 314.824C61.2219 314.577 61.5798 313.695 61.8365 312.91C64.4213 305.034 66.1925 296.851 67.1119 288.559C73.3404 292.035 81.0412 290.046 87.2691 286.511C88.0694 286.055 88.8752 285.572 89.7575 285.349C90.6631 285.124 91.604 285.187 92.5335 285.219C97.0657 285.364 101.623 284.619 105.922 283.037C106.948 282.662 108.006 282.2 108.689 281.288C109.371 280.376 109.507 278.885 108.707 278.103C113.208 279.624 117.965 280.255 122.679 279.964C125.087 279.815 128.295 279.998 128.851 282.544C129.186 275.568 128.648 268.441 126.337 261.931C124.03 255.421 119.815 249.547 114.09 246.381C96.9102 236.878 67.4705 235.367 56.2202 254.48C54.1902 257.929 56.2202 258.766 49.4935 260.267C38.5011 271.777 45.3112 291.758 52.0607 305.728Z" fill="#1C1C1C"/>
<path d="M70.1295 242.767C69.2361 247.951 66.9134 258.75 64.7693 260.478C67.8961 264.366 74.9537 272.314 78.1698 273.005" stroke="black"/>
<path d="M120.486 212.738C115.448 205.947 98.3182 194.401 70.1043 202.551" stroke="white"/>
<path d="M138.17 339.797L143.345 339.786L145.933 339.77C146.363 339.767 146.808 339.769 147.279 339.697C147.748 339.632 148.252 339.448 148.686 339.149C149.124 338.849 149.488 338.446 149.762 338.014C150.04 337.581 150.246 337.121 150.412 336.667C150.746 335.751 150.924 334.824 151.114 333.952L152.252 328.635L154.473 317.997C154.841 316.195 155.152 314.357 155.227 312.467C155.27 311.522 155.226 310.564 155.093 309.607C155.031 309.129 154.915 308.653 154.799 308.181L154.563 307.483C154.487 307.251 154.368 307.029 154.269 306.803C153.798 305.793 153.066 304.902 152.201 304.213C151.338 303.555 150.482 303.133 149.869 302.643C149.716 302.522 149.579 302.4 149.459 302.272C149.397 302.211 149.346 302.146 149.291 302.083C149.246 302.019 149.178 301.942 149.167 301.907C149.063 301.74 148.984 301.459 148.993 301.169C148.989 300.887 149.069 300.585 149.161 300.459C149.186 300.398 149.255 300.377 149.308 300.368C149.323 300.37 149.336 300.369 149.351 300.372C149.38 300.377 149.441 300.389 149.505 300.412C149.639 300.454 149.812 300.534 150.025 300.64L151.543 301.375L156.617 303.81C156.19 301.875 155.581 299.59 155.391 297.795C155.205 296.15 155.207 294.464 155.372 292.787C155.457 291.948 155.582 291.111 155.755 290.279C155.844 289.873 155.938 289.424 156.038 289.07C156.138 288.714 156.255 288.443 156.361 288.287C156.466 288.139 156.553 288.056 156.742 287.963C156.92 287.869 157.18 287.799 157.476 287.771C157.776 287.744 158.092 287.745 158.441 287.801L158.969 287.887L159.49 288.017C160.865 288.418 162.14 289.204 163.286 290.237C164.452 291.246 165.496 292.472 166.504 293.761C166.748 294.081 167.022 294.431 167.229 294.721C167.435 295.011 167.567 295.261 167.617 295.435C167.665 295.598 167.67 295.755 167.621 295.935C167.572 296.118 167.456 296.364 167.267 296.636C166.889 297.191 166.275 297.794 165.615 298.475C165.286 298.812 164.921 299.226 164.594 299.625L164.12 300.248L163.685 300.898C162.58 302.659 161.862 304.577 161.434 306.475C161.005 308.38 160.834 310.276 160.804 312.132C160.772 313.978 160.87 315.797 161.032 317.59C161.194 319.383 161.422 321.145 161.665 322.892C161.917 324.635 162.181 326.365 162.412 328.091C162.861 331.544 163.201 334.994 162.925 338.45C162.652 341.905 161.877 345.4 160.317 348.577C159.531 350.159 158.546 351.648 157.347 352.94C156.744 353.582 156.1 354.191 155.402 354.723C154.719 355.278 153.97 355.751 153.199 356.168C151.652 357.008 149.989 357.613 148.297 358.091C146.605 358.573 144.884 358.927 143.163 359.284C144.892 359.085 146.629 358.884 148.362 358.534C150.093 358.191 151.831 357.702 153.505 356.935C154.342 356.554 155.166 356.106 155.93 355.558C156.714 355.035 157.444 354.424 158.134 353.765C159.51 352.439 160.664 350.877 161.598 349.211C163.455 345.858 164.446 342.146 164.882 338.472C165.099 336.635 165.156 334.775 165.106 332.969C165.058 331.155 164.914 329.367 164.74 327.595C164.565 325.824 164.355 324.07 164.166 322.328C163.963 320.586 163.779 318.856 163.658 317.125C163.537 315.396 163.479 313.669 163.544 311.95C163.606 310.245 163.796 308.543 164.2 306.915C164.579 305.284 165.192 303.725 166.056 302.372L166.39 301.876L166.754 301.406C167.013 301.101 167.253 300.82 167.569 300.502C168.183 299.867 168.912 299.2 169.595 298.242C169.929 297.761 170.257 297.186 170.448 296.489C170.643 295.791 170.646 295.02 170.455 294.353C170.268 293.693 169.957 293.2 169.683 292.798C169.401 292.398 169.155 292.086 168.894 291.732C167.841 290.362 166.71 289.002 165.353 287.804C164.003 286.613 162.384 285.59 160.503 285.065L159.79 284.893C159.548 284.849 159.302 284.816 159.058 284.78C158.564 284.708 158.012 284.693 157.448 284.752C156.881 284.816 156.271 284.955 155.646 285.275C155.029 285.578 154.401 286.13 154.006 286.749C153.606 287.364 153.405 287.965 153.259 288.483C153.118 289.007 153.029 289.445 152.927 289.924C152.738 290.866 152.603 291.815 152.515 292.76C152.34 294.654 152.356 296.548 152.579 298.399L152.588 298.473C152.588 298.459 152.59 298.469 152.59 298.469L152.592 298.479L152.6 298.501L152.618 298.552L152.662 298.678C152.629 298.688 152.541 298.649 152.456 298.623L151.319 298.102C151.089 297.998 150.819 297.871 150.478 297.767C150.308 297.714 150.128 297.672 149.908 297.645C149.676 297.616 149.436 297.616 149.199 297.644C148.281 297.756 147.412 298.369 146.941 299.225C146.508 299.994 146.392 300.737 146.398 301.45C146.411 302.161 146.585 302.864 146.992 303.498C147.097 303.672 147.187 303.771 147.287 303.898C147.387 304.014 147.49 304.125 147.595 304.229C147.809 304.437 148.029 304.625 148.25 304.787C149.139 305.437 150.005 305.828 150.652 306.297C151.27 306.764 151.793 307.338 152.168 308.056C152.244 308.222 152.341 308.37 152.402 308.544L152.597 309.065C152.698 309.434 152.805 309.796 152.87 310.19C153.004 310.965 153.076 311.78 153.067 312.62C153.063 314.299 152.839 316.037 152.551 317.79L150.81 328.482L149.967 333.83C149.825 334.733 149.709 335.595 149.467 336.413C149.226 337.224 148.856 338 148.25 338.472C147.659 338.97 146.825 339.052 145.96 339.117L143.363 339.339L138.17 339.797Z" fill="#1C1C1C"/>
<path d="M74.6788 368.835C71.0094 373.908 67.5088 379.106 64.1701 384.411C62.5005 387.062 60.8745 389.738 59.2815 392.439L58.095 394.467C57.703 395.143 57.3007 395.836 56.9258 396.577C56.5534 397.314 56.2106 398.108 55.9694 398.955C55.7178 399.802 55.6087 400.714 55.6119 401.563C55.6146 403.277 55.9931 404.804 56.2998 406.238L57.2655 410.573L59.2127 419.237L61.2187 427.881L62.2231 432.202L62.4744 433.287C62.5636 433.664 62.6627 434.054 62.7896 434.461C63.0512 435.263 63.4335 436.174 64.2233 436.917C64.5462 437.211 64.933 437.461 65.3446 437.629C65.7536 437.801 66.1762 437.889 66.5892 437.93C67.0015 437.968 67.4099 437.954 67.8036 437.903C68.0004 437.878 68.1958 437.845 68.3885 437.8L68.9761 437.626L69.2675 437.536C69.365 437.502 69.4559 437.453 69.5481 437.411L70.1025 437.145C70.2855 437.053 70.4511 436.928 70.6234 436.819C70.7904 436.701 70.9721 436.602 71.1204 436.462C71.4239 436.196 71.7472 435.942 72.0036 435.634C72.1361 435.484 72.2726 435.337 72.4012 435.185L72.7505 434.705C73.6618 433.412 74.1974 431.922 74.3443 430.391C74.4319 429.626 74.3663 428.845 74.2188 428.09L74.0638 427.565C74.0679 427.585 74.0653 427.589 74.064 427.583L74.0633 427.579L74.0579 427.57C74.0519 427.558 74.0466 427.549 74.034 427.539C74.0181 427.53 74.0265 427.52 74.0396 427.516C74.0488 427.51 74.0619 427.506 74.071 427.5C74.0841 427.496 74.0972 427.492 74.1103 427.488C74.1274 427.486 74.0827 427.489 74.2206 427.482L74.2935 427.48C74.3533 427.483 74.4118 427.479 74.4795 427.486C74.6089 427.488 74.7453 427.524 74.8749 427.543C75.111 427.572 75.3694 427.658 75.6164 427.722L76.3746 427.931L76.575 427.605L76.661 427.466L76.7733 427.27C76.9217 426.996 77.0776 426.758 77.2016 426.485C77.4604 425.955 77.5889 425.336 77.5819 424.702C77.582 424.386 77.5315 424.061 77.4594 423.749C77.4164 423.594 77.3852 423.428 77.3313 423.286L77.2664 423.11C77.2448 423.057 77.2266 423.003 77.2024 422.954C77.0302 422.547 76.8176 422.18 76.5699 421.846C76.0498 421.142 75.4961 420.694 75.0043 420.26C74.5106 419.832 74.068 419.449 73.7552 419.053C73.5842 418.836 73.4508 418.631 73.35 418.399C73.2451 418.164 73.1603 417.892 73.0922 417.582C72.9533 416.968 72.8828 416.231 72.7348 415.423C72.4124 413.798 71.8102 412.368 71.2265 411.026C70.6462 409.684 70.0651 408.406 69.7545 407.103C69.4229 405.801 69.4177 404.492 69.759 403.157C70.1156 401.828 70.7758 400.518 71.5996 399.273C72.4188 398.022 73.3824 396.829 74.3789 395.644C78.4074 390.87 82.4112 386.062 86.3521 381.203C81.9656 385.648 77.6301 390.137 73.3279 394.668C72.2495 395.812 71.1761 396.997 70.2105 398.314C69.2441 399.627 68.3878 401.1 67.8702 402.742C67.6202 403.564 67.4685 404.422 67.4252 405.282C67.3754 406.144 67.477 406.98 67.6295 407.777C67.9431 409.377 68.53 410.783 69.0468 412.138C69.5734 413.49 70.0417 414.796 70.2453 416.103C70.3511 416.759 70.4027 417.523 70.5609 418.363C70.6413 418.781 70.7581 419.223 70.9358 419.656C71.1117 420.097 71.3622 420.512 71.6272 420.862C72.1185 421.512 72.6646 421.99 73.144 422.432C73.618 422.865 74.0636 423.279 74.3117 423.649C74.447 423.846 74.5648 424.059 74.6444 424.273C74.6572 424.301 74.6627 424.328 74.6748 424.352L74.6945 424.413C74.7012 424.428 74.6979 424.429 74.6993 424.436C74.702 424.449 74.7015 424.463 74.7003 424.474C74.6986 424.499 74.6929 424.522 74.68 424.544C74.6703 424.564 74.6535 424.583 74.6316 424.562L74.59 424.547L74.5795 424.546L74.5617 424.545L74.4323 424.543L74.1276 424.552L73.7351 424.593C73.2155 424.658 72.7004 424.778 72.2318 424.955C71.7625 425.127 71.3456 425.351 70.9201 425.566L70.2652 425.902C70.1423 425.965 70.0705 426.004 69.9797 426.053L69.717 426.198L70.2609 426.982L70.8257 427.816C70.9177 427.956 71.0196 428.093 71.1044 428.232L71.2031 428.437L71.252 428.538L71.2855 428.665L71.3881 429.005C71.4574 429.437 71.5066 429.889 71.4424 430.366C71.3468 431.309 70.9874 432.291 70.4132 433.079C69.8496 433.868 69.1108 434.486 68.3175 434.709C67.9366 434.855 67.4746 434.896 67.1293 434.862C66.9544 434.842 66.7964 434.803 66.6697 434.747C66.5397 434.692 66.4378 434.622 66.3304 434.525C66.0693 434.293 65.8224 433.846 65.63 433.258C65.5337 432.965 65.4491 432.643 65.3635 432.301L65.1045 431.229L64.0609 426.92L61.9736 418.304L59.8248 409.71L58.7419 405.414C58.3747 403.975 58.0045 402.62 57.9493 401.306C57.9263 400.646 57.9778 400.025 58.137 399.386C58.2955 398.744 58.5418 398.088 58.8459 397.425C59.15 396.762 59.5007 396.088 59.8649 395.396L60.9564 393.331C62.4175 390.583 63.8977 387.843 65.4043 385.112C68.4175 379.651 71.5159 374.23 74.6788 368.835Z" fill="#1C1C1C"/>
<path d="M59.8366 507.1C62.546 504.681 64.9994 502.011 67.3146 499.233C67.8994 498.543 68.4673 497.837 69.0276 497.127L70.6876 494.979L72.276 492.781L73.8438 490.565L75.3245 488.291L76.7781 486L78.1537 483.662L78.8276 482.484L79.4752 481.293C81.1964 478.112 82.7611 474.849 83.9956 471.437C81.7163 474.29 79.6326 477.216 77.5746 480.151L76.794 481.243L76.0374 482.351L74.508 484.554L73.0095 486.776L71.4872 488.981L70.0042 491.212L68.498 493.429L67.0164 495.666C66.5167 496.406 66.0183 497.152 65.5431 497.911C63.5869 500.911 61.6412 503.928 59.8366 507.1Z" fill="#1C1C1C"/>
<path d="M71.1658 511.374C74.7418 509.677 78.116 507.5 81.3027 505.054C82.0984 504.442 82.8825 503.806 83.6589 503.166L85.9434 501.179L88.1342 499.081L90.2677 496.919L92.2902 494.645L94.2474 492.317L96.0905 489.895L96.9746 488.658L97.8351 487.405C100.091 484.041 102.079 480.491 103.583 476.754C101.055 479.914 98.6079 483.042 96.0791 486.086L95.1106 487.209L94.1689 488.348L92.2279 490.577L90.2735 492.788L88.2599 494.944L86.2419 497.094L84.168 499.186L82.0743 501.265C81.3586 501.937 80.6474 502.614 79.9479 503.316C77.093 506.026 74.1445 508.66 71.1658 511.374Z" fill="#1C1C1C"/>
<path d="M61.5875 505.976C60.8002 507.763 60.3022 509.555 59.9025 511.348C59.8471 511.571 59.7956 511.795 59.7511 512.021L59.7321 512.109L59.7067 512.264L59.6598 512.576L59.5687 513.213C59.4448 514.1 59.3209 514.986 59.1969 515.873L58.9701 517.845L60.4787 516.772C61.0078 516.399 61.5638 515.977 62.0656 515.685L62.6825 515.278L62.989 515.074C63.0926 515.018 63.1821 514.959 63.2965 514.907L63.896 514.611L64.4411 514.381C64.6231 514.311 64.8102 514.249 64.9967 514.185C65.1792 514.101 65.3691 514.052 65.5581 513.983C65.7471 513.914 65.9363 513.863 66.1293 513.813C66.3217 513.76 66.5133 513.704 66.7097 513.671C66.9034 513.624 67.1002 513.56 67.2965 513.526C68.8804 513.206 70.5099 513.122 72.329 513.232C71.0795 511.95 69.2582 511.259 67.3627 511.173C67.1243 511.151 66.8856 511.16 66.6467 511.152C66.4066 511.155 66.1648 511.182 65.9224 511.206C65.6799 511.23 65.4381 511.257 65.1965 511.301C64.9549 511.345 64.71 511.373 64.4692 511.438C64.2298 511.508 63.9883 511.569 63.7502 511.647L63.0405 511.901C62.9209 511.945 62.8064 511.997 62.6913 512.047L62.5171 512.121C62.4675 512.144 62.3682 512.188 62.4108 512.165C62.4222 512.154 62.4081 512.152 62.4132 512.143C62.4108 512.165 62.3925 512.191 62.3578 512.236C62.3364 512.263 62.3337 512.25 62.3235 512.25C62.2816 512.276 62.2571 512.257 62.2248 512.215L62.2002 512.178L62.1885 512.155L62.1827 512.143L62.1832 512.064C62.1836 511.838 62.1777 511.614 62.1679 511.388C62.1383 509.585 62.0073 507.782 61.5875 505.976Z" fill="#1C1C1C"/>
<path d="M59.2977 509.336C57.508 512.509 56.1436 515.876 55.0552 519.314C54.7688 520.171 54.5252 521.035 54.2927 521.903L53.9585 523.209C53.853 523.645 53.7382 524.07 53.636 524.588C53.5532 525.1 53.4917 525.682 53.5771 526.326C53.6554 526.969 53.9414 527.651 54.3376 528.136C54.7359 528.631 55.2001 528.962 55.6415 529.218C56.0862 529.472 56.5225 529.652 56.93 529.811L61.5904 531.394L63.9411 532.119L65.1401 532.479C65.5543 532.587 65.9775 532.688 66.4142 532.771C67.285 532.942 68.2199 533.04 69.1868 532.944C70.1472 532.851 71.1521 532.524 71.9952 531.981C73.6852 530.913 74.8581 529.093 75.0455 527.311C74.2551 528.953 72.8697 530.114 71.4487 530.639C70.0266 531.175 68.6072 530.946 67.1797 530.445C66.8236 530.319 66.4634 530.174 66.1045 530.018L64.9889 529.563L62.7225 528.631L58.1488 526.902C57.4322 526.663 56.8493 526.372 56.6102 526.081C56.4871 525.935 56.4305 525.828 56.3885 525.626C56.3498 525.422 56.3536 525.126 56.4035 524.77C56.434 524.42 56.5156 523.984 56.5882 523.555L56.8177 522.275C56.9771 521.419 57.1372 520.567 57.2824 519.709C57.9305 516.286 58.6531 512.858 59.2977 509.336Z" fill="#1C1C1C"/>
<path d="M138.778 468.82C137.497 470.836 136.482 473.069 135.725 475.414C135.008 477.772 129.785 471.03 129.437 473.497C129.085 475.96 128.925 478.453 128.764 480.923C128.654 483.4 128.571 485.868 128.434 488.307C128.423 488.923 128.384 489.526 128.36 490.137C128.333 490.748 128.31 491.356 128.263 491.96L128.135 493.773L127.952 495.567C127.913 496.17 127.83 496.759 127.757 497.354C127.68 497.949 127.622 498.539 127.52 499.135C127.427 499.739 127.329 500.362 127.258 501.011C127.199 501.665 127.163 502.347 127.199 503.052C127.28 504.47 127.645 505.884 128.254 507.153C128.854 508.426 129.658 509.555 130.541 510.559C132.319 512.57 134.394 514.126 136.506 515.551C134.775 513.641 133.036 511.739 131.689 509.672C131.018 508.643 130.455 507.575 130.085 506.487C129.708 505.4 129.549 504.306 129.579 503.237C129.603 502.7 129.683 502.153 129.79 501.597C129.888 501.035 130.017 500.461 130.147 499.866C130.285 499.267 130.386 498.645 130.502 498.031C130.616 497.417 130.74 496.802 130.819 496.18L131.05 494.316L131.222 492.446C131.285 491.822 131.322 491.201 131.363 490.577C131.399 489.956 131.451 489.332 131.477 488.71C131.56 486.214 131.584 483.738 131.638 481.272C131.637 478.802 131.73 476.366 131.796 473.925C131.913 471.496 136.846 478.276 137.175 475.881C137.546 473.503 138.072 471.157 138.778 468.82Z" fill="#1C1C1C"/>
<path d="M125.741 509.139C125.039 511.37 124.405 513.617 123.821 515.88C123.747 516.17 123.674 516.43 123.603 516.752C123.537 517.071 123.475 517.457 123.538 517.916C123.602 518.383 123.823 518.843 124.077 519.186C124.331 519.532 124.613 519.8 124.875 520.034C125.145 520.267 125.379 520.451 125.623 520.648L126.351 521.23C126.844 521.606 127.334 521.992 127.839 522.356C129.828 523.854 131.939 525.158 134.076 526.404C136.239 527.597 138.448 528.693 140.706 529.664C141.84 530.134 142.986 530.554 144.134 530.964C145.289 531.37 146.482 531.748 147.718 532.022C148.956 532.275 150.248 532.412 151.538 532.334C152.182 532.287 152.814 532.216 153.502 532.007C153.841 531.894 154.181 531.748 154.508 531.54C154.67 531.437 154.834 531.325 154.973 531.188C155.118 531.056 155.263 530.924 155.38 530.766C155.883 530.159 156.164 529.403 156.253 528.681C156.349 527.956 156.3 527.247 156.179 526.573C156.058 525.898 155.86 525.253 155.609 524.63C155.349 524.002 155.066 523.447 154.749 522.878C153.495 520.632 151.754 518.684 149.758 517.248C151.375 519.132 152.64 521.233 153.482 523.425C153.691 523.966 153.889 524.541 154.031 525.067C154.17 525.602 154.265 526.143 154.296 526.663C154.329 527.181 154.301 527.682 154.192 528.113C154.088 528.549 153.894 528.881 153.647 529.121C153.397 529.361 153.094 529.506 152.667 529.593C152.257 529.693 151.734 529.726 151.225 529.726C150.202 529.724 149.15 529.558 148.088 529.273C147.02 529.011 145.942 528.647 144.848 528.237C143.753 527.817 142.659 527.39 141.583 526.919C139.405 526.038 137.266 525.035 135.168 523.938C133.052 522.878 130.995 521.676 128.942 520.447C128.429 520.142 127.925 519.816 127.416 519.498L126.66 519.009C126.408 518.846 126.146 518.68 125.934 518.533C125.719 518.386 125.537 518.239 125.406 518.105C125.276 517.968 125.207 517.861 125.159 517.731C125.113 517.594 125.099 517.38 125.118 517.119C125.138 516.859 125.172 516.546 125.202 516.255C125.441 513.9 125.625 511.53 125.741 509.139Z" fill="#1C1C1C"/>
<path d="M136.184 516.598C136.795 517.858 137.651 518.877 138.602 519.763C139.066 520.231 139.592 520.596 140.103 520.994L140.236 521.082L140.408 521.19C140.578 521.294 140.745 521.397 140.92 521.482C141.265 521.651 141.632 521.741 141.996 521.727C142.373 521.711 142.721 521.586 143.04 521.376C143.154 521.294 143.263 521.203 143.371 521.115L143.556 520.957L143.88 520.683L144.528 520.133L145.134 519.527L145.435 519.222L145.714 518.889C146.472 518.019 147.162 517.057 147.667 515.853C146.38 516.029 145.283 516.448 144.25 516.957L143.858 517.143L143.486 517.357L142.75 517.786L142.055 518.273L141.708 518.515L141.62 518.575C141.596 518.591 141.546 518.629 141.556 518.616L141.552 518.607C141.556 518.616 141.557 518.626 141.555 518.639C141.552 518.648 141.547 518.657 141.539 518.661C141.535 518.663 141.528 518.664 141.524 518.667C141.542 518.679 141.475 518.644 141.436 518.624L141.309 518.554C140.77 518.322 140.257 518.037 139.701 517.823C138.613 517.347 137.488 516.901 136.184 516.598Z" fill="#1C1C1C"/>
<path d="M141.138 508.193C141.932 503.831 142.782 499.569 143.868 495.395C144.441 493.32 144.989 491.243 145.676 489.221C146.306 487.178 147.025 485.173 147.823 483.204C148.572 481.212 149.41 479.24 150.265 477.257L151.492 474.249L152.103 472.742L152.685 471.22C153.467 469.195 154.223 467.155 154.931 465.093C155.639 463.041 156.306 461.013 157.437 459.151C155.79 460.564 154.594 462.488 153.528 464.367C152.461 466.249 151.448 468.151 150.456 470.07L149.706 471.505L148.989 472.957L147.561 475.865C146.651 477.832 145.745 479.818 144.914 481.864C144.139 483.937 143.45 486.045 142.851 488.184C142.305 490.344 141.8 492.513 141.497 494.734C140.826 499.156 140.641 503.686 141.138 508.193Z" fill="#1C1C1C"/>
<path d="M97.3938 325.65C97.2345 325.028 97.1424 324.702 97.0748 324.485C97.0367 324.348 97.0188 324.317 96.9936 324.238L96.9505 324.161L96.9449 324.249L96.9556 324.36L96.9618 324.42L96.9748 324.509C97.0082 324.737 97.066 325.072 97.1918 325.708C97.3519 326.334 97.444 326.659 97.5115 326.877L97.5382 326.963L97.5581 327.018L97.5962 327.122L97.6385 327.196L97.6434 327.105C97.6319 327.022 97.6345 326.986 97.61 326.846C97.5767 326.618 97.5189 326.283 97.3938 325.65Z" fill="#1C1C1C"/>
<path d="M116.951 256.799L92.7007 263.42C94.8415 267.836 101.017 275.851 108.594 272.583C116.17 269.314 117.322 260.698 116.951 256.799Z" fill="#1C1C1C"/>
<path d="M102.067 273.134C103.614 270.256 108.278 265.133 114.562 267.659C112.906 273.425 106.524 276.46 102.067 273.134Z" fill="white"/>
<path d="M72.1194 160.309C70.9073 160.645 69.6754 159.844 69.3677 158.52C69.06 157.196 69.7931 155.85 71.0052 155.514C72.2172 155.177 73.4491 155.978 73.7568 157.303C74.0645 158.627 73.3314 159.973 72.1194 160.309Z" fill="#1C1C1C"/>
<path d="M105.014 236.553C103.138 234.152 97.2104 229.252 88.5105 228.857" stroke="white"/>
<path d="M66.5191 310.611C66.5192 288.991 60.9293 282.86 61.2679 271.238L68.1674 269.544L70.5839 274.446L90.1532 282.28C91.2594 282.868 93.1795 283.452 95.7801 283.646L107.814 280.692L109.114 281.563C111.051 280.873 113.099 279.988 115.244 278.868C127.963 272.229 129.848 259.897 129.201 254.561L145.688 282.934L123.374 284.015L112.613 283.91L109.114 281.563C103.711 283.489 99.1679 283.899 95.7801 283.646L95.0765 283.819L96.1606 287.949L91.9148 288.991L82.5086 294.048L66.5191 310.611Z" fill="#1C1C1C"/>
<path d="M134.996 324.072C149.665 323.001 157.095 304.975 153.922 298.224L144.761 299.553L130.873 308.367L134.996 324.072Z" fill="#1C1C1C"/>
<path d="M136.092 322.738C150.874 327.79 187.088 331.758 213.695 307.211C246.953 276.527 257.275 273.569 271.802 272.091" stroke="black"/>
<path d="M76.475 328.95L69.8305 314.316L70.813 312.72L80.3003 323.945L76.475 328.95Z" fill="#1C1C1C" stroke="#1C1C1C"/>
<path d="M99.7279 408.633L83.1133 400.513L82.124 400.304L82.779 399.24L83.7683 399.449L103.881 403.095L99.7279 408.633Z" fill="#1C1C1C"/>
<path d="M156.934 388.012C151.238 397.062 135.995 405.737 130.405 410.009C128.087 407.581 131.748 400.831 133.868 397.759L156.934 388.012Z" fill="#1C1C1C"/>
<rect x="1.83759" y="1.09323" width="72.9266" height="39.1281" rx="6.5" transform="matrix(0.971164 -0.238413 0.253899 0.967231 148.184 240.38)" fill="#673AB7" fill-opacity="0.39" stroke="#1C1C1C" stroke-width="3"/>
<path d="M107.261 250.007L107.369 250.158C108.646 251.935 107.746 254.406 105.632 254.925V254.925" stroke="black" stroke-width="2"/>
<path d="M287.124 138.915L287.631 138.378L287.251 137.753L282.602 130.11L292.885 119.209L301.205 122.964L301.882 123.269L302.387 122.734L311.24 113.349L312.224 112.306L310.875 111.776L260.761 92.1062L260.105 91.8487L259.626 92.3559L251.877 100.571L251.398 101.08L251.725 101.689L276.667 148.045L277.337 149.291L278.319 148.25L287.124 138.915ZM276.521 120.094L269.547 108.629L282.01 114.275L276.521 120.094Z" stroke="black" stroke-width="2"/>
<path d="M222.688 282.563L205.287 250.893L217.05 244.848C221.264 242.683 224.876 241.784 227.886 242.153C230.911 242.514 233.204 244.116 234.766 246.958C235.666 248.596 236.045 250.196 235.903 251.757C235.761 253.318 235.084 254.763 233.872 256.092C235.82 255.649 237.579 255.787 239.147 256.506C240.715 257.225 241.969 258.44 242.909 260.151C244.614 263.254 244.877 266.113 243.698 268.727C242.527 271.319 239.954 273.654 235.981 275.733L222.688 282.563ZM223.185 265.042L227.356 272.634L232.53 269.975C233.954 269.243 234.877 268.369 235.3 267.352C235.714 266.321 235.606 265.233 234.977 264.087C233.527 261.448 231.44 260.819 228.718 262.199L223.185 265.042ZM220.436 260.039L224.552 257.924C226.269 257.023 227.331 256.087 227.739 255.115C228.147 254.143 228.033 253.077 227.395 251.917C226.662 250.583 225.739 249.83 224.626 249.658C223.504 249.472 222.059 249.833 220.289 250.743L216.421 252.73L220.436 260.039Z" fill="black"/>
<path d="M133.726 60.2872C133.447 61.706 132.861 62.9146 131.97 63.9132C131.08 64.9024 129.93 65.6063 128.52 66.0249C127.119 66.4448 125.574 66.5379 123.883 66.3042C121.095 65.9186 119.029 64.7364 117.685 62.7576C116.342 60.7789 115.907 58.1875 116.381 54.9835L116.531 53.9687C116.828 51.958 117.448 50.2507 118.389 48.8467C119.341 47.4347 120.558 46.4141 122.039 45.7847C123.522 45.146 125.157 44.9502 126.945 45.1974C129.519 45.5535 131.492 46.4974 132.861 48.0291C134.232 49.5515 134.855 51.4784 134.728 53.81L129.627 53.1046C129.773 51.8496 129.58 50.9073 129.049 50.2777C128.517 49.648 127.625 49.2466 126.371 49.0733C125.099 48.8972 124.098 49.2287 123.369 50.0675C122.64 50.9064 122.112 52.3338 121.784 54.35L121.569 55.8016C121.246 57.9909 121.296 59.5943 121.721 60.6118C122.155 61.6307 123.067 62.2362 124.456 62.4283C125.632 62.5909 126.57 62.4474 127.271 61.9978C127.972 61.5482 128.428 60.7436 128.639 59.5838L133.726 60.2872Z" fill="black"/>
<path d="M380.965 27.089L390.788 28.4473L389.597 36.4977L379.775 35.1394L378.164 46.0311L369.091 44.7764L370.701 33.8847L360.85 32.5224L362.04 24.4721L371.892 25.8343L373.457 15.249L382.53 16.5038L380.965 27.089Z" fill="black"/>
<path d="M375.801 23.5217L385.623 24.8799L384.433 32.9303L374.61 31.572L373 42.4637L363.926 41.209L365.537 30.3173L355.686 28.9551L356.876 20.9047L366.727 22.2669L368.292 11.6817L377.366 12.9364L375.801 23.5217Z" fill="#3CCC95"/>
<path d="M392.458 199.534C388.413 204.605 384.647 209.911 382.042 215.879C381.37 217.36 380.81 218.892 380.346 220.456C379.873 222.008 379.469 223.641 379.358 225.413C379.341 225.859 379.346 226.306 379.376 226.763C379.401 227.219 379.495 227.671 379.558 228.128C379.643 228.583 379.778 229.027 379.889 229.477C380.05 229.913 380.19 230.362 380.377 230.79C381.117 232.513 382.197 234.091 383.428 235.511C385.963 238.315 389.05 240.509 392.205 242.418C393.787 243.351 395.406 244.232 397.044 245.074C397.865 245.491 398.695 245.894 399.525 246.29C400.369 246.665 401.209 247.05 402.063 247.4C408.854 250.294 416.076 252.261 423.328 253.04C416.337 250.897 409.62 248.312 403.291 245.097C402.495 244.701 401.721 244.277 400.942 243.86C400.163 243.443 399.389 243.019 398.619 242.585C397.089 241.712 395.585 240.802 394.117 239.85C391.179 238.009 388.428 235.948 386.343 233.553C385.282 232.375 384.394 231.114 383.792 229.795C383.643 229.464 383.532 229.126 383.395 228.796C383.309 228.457 383.194 228.118 383.125 227.78C383.077 227.437 382.992 227.097 382.965 226.752C382.935 226.407 382.921 226.059 382.929 225.706C382.918 224.291 383.201 222.814 383.566 221.315C383.917 219.822 384.348 218.341 384.83 216.868C386.802 210.985 389.789 205.343 392.458 199.534Z" fill="#1C1C1C"/>
<path d="M425.845 251.886C425.282 252.086 424.98 252.314 424.772 252.547C424.645 252.663 424.609 252.785 424.532 252.906L424.441 253.279L424.495 253.665L424.581 253.864L424.627 253.966L424.699 254.069C424.883 254.34 425.162 254.623 425.705 254.929C426.271 254.729 426.573 254.502 426.781 254.268L426.862 254.179L426.917 254.088L427.021 253.907L427.109 253.534L427.053 253.147C426.987 253.012 426.964 252.885 426.848 252.745C426.664 252.475 426.385 252.191 425.845 251.886Z" fill="#1C1C1C"/>
<path d="M425.267 255.163C426.252 256.255 427.365 257.238 428.539 258.117C429.71 259.001 430.936 259.794 432.151 260.576C433.363 261.357 434.569 262.113 435.707 262.954L436.56 263.582C436.844 263.791 437.115 264.021 437.395 264.239C437.955 264.67 438.487 265.142 439.025 265.604C441.15 267.485 443.143 269.541 445.015 271.727C446.917 273.881 448.699 276.172 450.441 278.509C451.33 279.661 452.207 280.832 453.083 282.006L453.74 282.888C453.954 283.179 454.191 283.49 454.365 283.739C454.542 283.992 454.675 284.221 454.739 284.391C454.805 284.567 454.802 284.632 454.795 284.723C454.787 284.832 454.708 285.051 454.558 285.328L454.061 286.245C453.73 286.864 453.376 287.468 453.031 288.079C452.671 288.679 452.326 289.29 451.952 289.883C451.598 290.486 451.226 291.082 450.855 291.675C447.858 296.412 444.48 300.883 440.835 305.196C445.256 301.764 449.176 297.609 452.571 293.014C452.995 292.439 453.417 291.86 453.827 291.274C454.237 290.685 454.623 290.081 455.019 289.481C455.4 288.871 455.793 288.27 456.162 287.652L456.726 286.72C456.918 286.38 457.162 285.948 457.286 285.338C457.345 285.035 457.355 284.691 457.321 284.377C457.288 284.059 457.209 283.763 457.113 283.502C456.919 282.978 456.666 282.571 456.431 282.215C456.187 281.859 455.981 281.582 455.765 281.278L455.121 280.381C454.257 279.184 453.391 277.989 452.503 276.802C450.693 274.458 448.828 272.138 446.817 269.936C444.772 267.774 442.643 265.661 440.253 263.887C439.657 263.441 439.068 262.992 438.449 262.587C438.141 262.382 437.84 262.168 437.526 261.971L436.58 261.394C435.317 260.627 434.015 259.987 432.728 259.355C430.152 258.117 427.592 256.93 425.267 255.163Z" fill="#1C1C1C"/>
<path d="M413.884 253.024C413.99 253.812 414.039 254.597 414.033 255.377C414.029 255.767 414.014 256.156 413.985 256.54C413.97 256.737 413.952 256.865 413.933 257.021L413.902 257.242L413.885 257.348C413.878 257.382 413.887 257.429 413.835 257.421C413.698 257.433 413.567 257.448 413.444 257.477C413.382 257.486 413.319 257.502 413.265 257.519C413.177 257.548 413.091 257.57 413.006 257.606C412.669 257.732 412.351 257.887 412.041 258.047C411.431 258.373 410.859 258.718 410.292 258.952C410.008 259.062 409.726 259.15 409.449 259.188C409.31 259.197 409.175 259.221 409.037 259.205L408.833 259.195L408.631 259.16C408.087 259.068 407.556 258.776 407.031 258.42C405.973 257.687 404.989 256.631 403.651 255.803C402.329 254.997 400.909 254.54 399.553 254.172C396.115 253.236 392.628 252.613 389.123 252.169C385.616 251.774 382.093 251.604 378.58 251.663L376.048 251.758L375.407 251.783L375.327 251.785C375.329 251.807 375.34 251.839 375.347 251.865L375.39 252.03L375.475 252.36L375.817 253.681C375.929 254.125 376.046 254.548 376.158 255.011L376.317 255.664C376.427 256.099 376.519 256.535 376.617 256.972C376.998 258.721 377.307 260.485 377.545 262.255C377.804 264.023 377.988 265.803 378.1 267.586C378.16 268.477 378.195 269.37 378.216 270.261C378.246 271.153 378.318 274.072 378.312 274.967L378.302 275.635L378.299 275.969L378.274 276.502L378.223 277.607L378.198 278.152C378.199 278.196 378.187 278.247 378.197 278.286L378.338 278.318L378.616 278.384L379.72 278.647L380.229 278.767L380.555 278.835C380.986 278.925 381.42 279.013 381.854 279.094C383.585 279.426 385.324 279.703 387.067 279.915C390.549 280.335 394.042 280.509 397.51 280.411C394.048 279.927 390.619 279.32 387.224 278.564C385.528 278.183 383.839 277.768 382.158 277.314L380.902 276.966L380.589 276.877C380.519 276.858 380.528 276.859 380.507 276.851L380.461 276.834L380.292 276.768L380.254 276.753L380.234 276.744C380.234 276.735 380.238 276.723 380.239 276.711L380.257 276.576L380.292 276.322L380.301 276.261L380.305 276.231C380.305 276.225 380.309 276.213 380.311 276.176L380.335 275.831L380.382 275.142C380.443 274.221 380.425 271.273 380.444 270.348C380.457 269.424 380.453 268.497 380.425 267.571C380.371 265.717 380.241 263.861 380.037 262.011C379.811 260.162 379.512 258.319 379.138 256.49C379.044 256.032 378.952 255.574 378.843 255.121L378.685 254.437C378.691 254.452 378.688 254.434 378.688 254.437C378.691 254.434 378.692 254.428 378.697 254.431C378.7 254.432 378.703 254.435 378.703 254.435L378.706 254.438L378.709 254.439L378.712 254.439L378.75 254.44C382.15 254.332 385.57 254.443 388.979 254.779C392.39 255.063 395.795 255.612 399.174 256.274C400.479 256.546 401.727 256.878 402.84 257.458C403.936 258.017 404.995 258.982 406.303 259.754C406.964 260.126 407.712 260.467 408.532 260.526L408.836 260.546L409.138 260.531C409.34 260.525 409.537 260.476 409.732 260.439C410.118 260.342 410.465 260.186 410.793 260.016C411.437 259.662 411.978 259.233 412.519 258.857C412.788 258.672 413.057 258.493 413.336 258.349C413.406 258.31 413.475 258.282 413.545 258.248C413.645 258.199 413.744 258.168 413.849 258.138C414.053 258.071 414.254 258.018 414.451 257.972C414.499 257.955 414.485 257.876 414.488 257.818L414.491 257.632L414.496 257.264C414.495 257.028 414.492 256.765 414.481 256.566C414.461 256.164 414.423 255.764 414.371 255.366C414.268 254.575 414.106 253.789 413.884 253.024Z" fill="#1C1C1C"/>
<path d="M396.725 279.88C394.273 287.766 392.486 295.917 391.267 304.188C390.632 308.32 390.202 312.493 389.84 316.676L389.627 319.821L389.535 321.497C389.584 322.437 389.015 323.89 390.304 323.823L391.623 324.232L392.352 324.48C392.82 324.634 393.284 324.809 393.749 324.981C394.678 325.329 395.603 325.704 396.524 326.092C400.228 327.615 403.875 329.429 407.606 331.139C409.478 331.976 411.376 332.788 413.309 333.515C414.277 333.873 415.25 334.221 416.235 334.531C416.727 334.684 417.222 334.831 417.718 334.966C418.214 335.11 418.717 335.232 419.216 335.355C423.209 336.345 427.404 336.708 431.413 335.996C435.416 335.286 439.099 333.664 442.595 331.814C438.865 333.127 435.069 334.296 431.194 334.627C427.33 334.963 423.428 334.372 419.65 333.235C419.178 333.09 418.706 332.948 418.235 332.785C417.763 332.63 417.296 332.464 416.831 332.289C415.895 331.959 414.967 331.59 414.042 331.214C412.193 330.451 410.366 329.6 408.541 328.715C404.876 326.983 401.217 325.108 397.411 323.487C396.454 323.097 395.491 322.718 394.514 322.369C394.026 322.194 393.538 322.02 393.046 321.86L392.334 321.627L392.202 321.593C392.076 321.565 392.121 321.557 392.107 321.537L392.168 320.083L392.343 316.974C392.558 312.824 392.929 308.692 393.316 304.559C394.145 296.297 395.343 288.092 396.725 279.88Z" fill="#1C1C1C"/>
<path d="M440.931 335.592C441.106 339.842 439.9 343.911 440.181 348.261C440.31 350.419 440.734 352.548 441.225 354.634C441.729 356.72 442.266 358.773 442.791 360.844L445.99 373.227L446.797 376.32L447.201 377.865L447.301 378.251L447.352 378.446L447.367 378.51C447.384 378.583 447.401 378.656 447.413 378.726L447.236 378.843L447.18 378.881L447.03 378.988L446.732 379.202C446.331 379.482 445.915 379.741 445.508 380.01C445.104 380.286 444.672 380.516 444.256 380.772C443.841 381.028 443.409 381.254 442.98 381.487C439.536 383.316 435.845 384.657 432.026 385.407C430.118 385.789 428.184 386.031 426.236 386.125C425.748 386.138 425.26 386.169 424.773 386.169L423.311 386.158C423.08 386.151 422.89 386.136 422.755 386.108C422.617 386.079 422.556 386.042 422.559 386.039C422.546 386.019 422.551 386.038 422.502 385.94C422.461 385.852 422.41 385.682 422.363 385.473L419.885 372.975L418.642 366.708L418.126 364.125L417.815 362.564C417.789 362.428 417.762 362.313 417.734 362.201L417.649 361.863L417.478 361.187L417.137 359.832L416.967 359.152L416.957 359.111C416.951 359.101 416.944 359.131 416.934 359.14L416.889 359.217L416.799 359.37L416.619 359.679L415.202 362.088L414.509 363.341L414.337 363.658L414.176 364.004L413.853 364.695L413.534 365.384L413.376 365.773C413.276 366.025 413.169 366.273 413.077 366.532C412.689 367.547 412.371 368.594 412.102 369.655C411.559 371.776 411.265 373.974 411.196 376.189C411.188 376.737 411.182 377.318 411.192 377.823C411.195 378.328 411.183 378.784 411.121 379.158C411.056 379.535 410.952 379.805 410.793 380.027C410.629 380.254 410.366 380.475 410.024 380.679C409.683 380.882 409.271 381.064 408.82 381.252C408.372 381.442 407.921 381.62 407.471 381.792C406.568 382.136 405.655 382.441 404.732 382.698C401.066 383.746 397.141 383.979 393.59 382.582C391.826 381.9 390.174 380.855 388.87 379.467C387.55 378.096 386.645 376.347 386.116 374.442C385.586 372.533 385.41 370.486 385.399 368.428C385.384 366.369 385.525 364.268 385.634 362.165C385.88 357.968 386.21 353.775 386.614 349.593C387.026 345.411 387.515 341.24 388.077 337.082C388.649 332.924 389.294 328.777 390.01 324.643C389.021 328.705 388.135 332.798 387.349 336.919C386.571 341.044 385.893 345.194 385.312 349.366C384.74 353.538 384.268 357.736 383.89 361.946C383.716 364.049 383.512 366.156 383.471 368.328C383.428 370.49 383.55 372.725 384.11 374.944C384.388 376.051 384.783 377.147 385.314 378.188C385.839 379.228 386.515 380.21 387.294 381.066C388.859 382.784 390.799 384.043 392.844 384.873C394.889 385.706 397.084 386.1 399.215 386.11C401.354 386.127 403.449 385.798 405.456 385.267C406.46 384.995 407.442 384.672 408.406 384.312C408.889 384.131 409.366 383.943 409.838 383.749C410.307 383.557 410.816 383.341 411.337 383.039C411.853 382.736 412.4 382.331 412.84 381.735C413.289 381.136 413.539 380.401 413.649 379.748C413.763 379.086 413.767 378.483 413.769 377.929C413.762 377.374 413.772 376.899 413.78 376.389C413.855 374.386 414.131 372.395 414.634 370.475C414.883 369.516 415.176 368.569 415.533 367.654C415.615 367.422 415.714 367.198 415.808 366.97L415.942 366.644C415.945 366.635 415.945 366.641 415.945 366.638C415.948 366.638 415.948 366.638 415.948 366.641C415.948 366.638 415.952 366.617 415.955 366.623C415.958 366.623 415.957 366.627 415.96 366.63L415.963 366.636L415.963 366.639L415.994 366.789L416.074 367.179L417.353 373.44L419.917 385.993C419.992 386.299 420.083 386.65 420.27 387.044C420.448 387.428 420.78 387.887 421.191 388.175C421.616 388.483 422.052 388.612 422.411 388.68C422.776 388.746 423.09 388.754 423.36 388.758L424.913 388.745C425.43 388.735 425.945 388.697 426.459 388.674C428.519 388.541 430.562 388.256 432.568 387.822C436.581 386.963 440.443 385.469 443.997 383.433C444.442 383.18 444.89 382.93 445.318 382.647C445.75 382.368 446.192 382.114 446.609 381.812C447.029 381.516 447.458 381.233 447.87 380.926L449.61 379.614C449.514 379.181 449.366 378.731 449.249 378.297L448.991 377.398L448.545 375.861L447.648 372.79L444.032 360.517C443.429 358.473 442.802 356.427 442.216 354.392C441.639 352.357 441.131 350.307 440.9 348.23C440.421 344.073 441.379 339.84 440.931 335.592Z" fill="#1C1C1C"/>
<path d="M377.697 252.39C376.024 250.66 374.313 248.985 372.576 247.346C370.842 245.716 369.128 244.107 367.712 242.319C366.319 240.531 365.206 238.572 364.978 236.518C364.659 234.497 365.259 232.353 365.91 230.092L367.718 223.236L367.824 222.804C367.861 222.657 367.905 222.474 367.937 222.304C368.003 221.956 368.056 221.598 368.071 221.207C368.086 220.817 368.069 220.398 367.953 219.926C367.926 219.811 367.884 219.684 367.837 219.545C367.78 219.414 367.723 219.283 367.657 219.158C367.516 218.913 367.348 218.683 367.145 218.494C366.738 218.114 366.224 217.877 365.692 217.826C365.412 217.799 365.215 217.812 365.005 217.838C364.8 217.866 364.616 217.908 364.447 217.958C364.105 218.06 363.831 218.178 363.569 218.281L362.769 218.612C360.644 219.503 358.59 220.552 356.636 221.766C356.15 222.071 355.664 222.376 355.182 222.734C354.703 223.093 354.236 223.506 353.866 224.016C353.491 224.523 353.238 225.144 353.17 225.777C353.102 226.41 353.23 227.084 353.583 227.582C353.355 227.012 353.386 226.403 353.557 225.883C353.733 225.355 354.037 224.91 354.423 224.562C355.199 223.852 356.223 223.467 357.262 223.018C359.326 222.143 361.412 221.364 363.533 220.698L364.329 220.458C364.601 220.377 364.858 220.301 365.063 220.264C365.169 220.243 365.262 220.23 365.34 220.225C365.411 220.219 365.498 220.228 365.503 220.234C365.545 220.241 365.573 220.276 365.596 220.306C365.61 220.317 365.615 220.339 365.62 220.355L365.619 220.38C365.613 220.386 365.624 220.403 365.628 220.434C365.647 220.552 365.653 220.738 365.632 220.946C365.61 221.154 365.57 221.382 365.509 221.614C365.479 221.737 365.448 221.837 365.405 221.974L365.275 222.398L363.332 229.21C363.032 230.35 362.715 231.54 362.513 232.815C362.314 234.082 362.236 235.466 362.48 236.841C362.725 238.206 363.22 239.504 363.874 240.664C364.528 241.824 365.329 242.85 366.197 243.764C367.922 245.603 369.864 247.061 371.801 248.428C373.736 249.786 375.696 251.114 377.697 252.39Z" fill="#1C1C1C"/>
<path d="M378.593 276.513L379.238 278.118L379.521 277.89C376.792 274.528 373.932 271.307 371.027 268.142C369.401 266.333 367.7 264.59 366.048 262.823C364.381 261.102 362.806 259.365 361.679 257.428C361.393 256.949 361.122 256.467 360.903 255.953C360.792 255.697 360.663 255.452 360.564 255.188L360.277 254.394C359.923 253.317 359.639 252.199 359.45 251.04C359.221 249.89 359.066 248.703 358.918 247.501L358.702 245.683L358.452 243.845C358.266 242.611 358.075 241.374 357.766 240.137C357.633 239.518 357.434 238.905 357.255 238.297C357.156 237.992 357.038 237.692 356.929 237.392L356.761 236.943C356.705 236.793 356.628 236.65 356.562 236.503C355.549 234.14 353.921 232.093 351.992 230.629C353.551 232.526 354.703 234.685 355.332 236.957C355.373 237.099 355.424 237.236 355.459 237.381L355.559 237.812C355.624 238.101 355.7 238.385 355.756 238.673C355.852 239.257 355.975 239.831 356.041 240.425C356.208 241.595 356.285 242.793 356.367 243.992L356.46 245.808L356.576 247.645C356.666 248.879 356.761 250.127 356.946 251.392C357.13 252.654 357.419 253.929 357.812 255.193L358.134 256.135C358.243 256.45 358.393 256.753 358.52 257.061C358.773 257.682 359.092 258.278 359.422 258.857C360.817 261.139 362.597 262.984 364.329 264.709C366.096 266.386 367.824 268.075 369.62 269.701C372.761 272.607 375.953 275.457 379.274 278.166L380.244 278.956L379.557 277.938L378.593 276.513Z" fill="#1C1C1C"/>
<path d="M411.544 384.148C412.913 387.72 414.325 391.202 415.649 394.713C415.956 395.603 416.285 396.478 416.624 397.35L417.568 399.998L418.5 402.648L419.361 405.322L420.226 407.996L421.024 410.697L421.815 413.405L422.177 414.772L422.571 416.132C423.561 419.775 424.463 423.461 425.458 427.18C425.641 423.244 425.338 419.343 424.742 415.508L424.504 414.075L424.238 412.646L423.626 409.813L422.88 407.018L422.065 404.25L421.105 401.537L420.078 398.856L418.926 396.234C418.52 395.374 418.109 394.515 417.674 393.669C415.939 390.291 413.938 387.061 411.544 384.148Z" fill="#1C1C1C"/>
<path d="M449.128 381.697C450.882 385.065 452.668 388.339 454.371 391.652C454.775 392.495 455.199 393.321 455.631 394.142L456.862 396.647L458.081 399.155L459.234 401.697L460.391 404.237L461.486 406.812L462.574 409.394L463.087 410.703L463.63 411.999C465.021 415.483 466.331 419.02 467.737 422.577C467.459 418.664 466.709 414.843 465.681 411.123L465.282 409.734L464.856 408.353L463.928 405.625L462.874 402.952L461.755 400.312L460.501 397.745L459.185 395.218L457.753 392.763C457.257 391.961 456.754 391.162 456.23 390.377C454.141 387.245 451.809 384.29 449.128 381.697Z" fill="#1C1C1C"/>
<path d="M426.531 435.087C426.127 435.093 425.682 435.275 425.31 435.561C424.935 435.849 424.626 436.218 424.368 436.59C423.852 437.34 423.507 438.125 423.144 438.756C422.773 439.344 422.404 439.9 421.915 440.369C421.464 440.864 420.942 441.299 420.377 441.643C419.838 442.037 419.239 442.337 418.625 442.562C418.315 442.683 417.998 442.8 417.671 442.881C417.51 442.93 417.344 442.958 417.176 442.997C417.008 443.033 416.84 443.078 416.67 443.105C415.302 443.34 413.861 443.323 412.267 443.172C413.316 444.36 414.857 445.087 416.542 445.238C416.752 445.265 416.965 445.268 417.181 445.281C417.397 445.271 417.612 445.27 417.83 445.247C418.267 445.213 418.704 445.134 419.146 445.038C420.02 444.784 420.871 444.413 421.66 443.908C422.43 443.37 423.127 442.717 423.727 441.974C424.289 441.206 424.776 440.351 425.021 439.444C425.267 438.577 425.363 437.808 425.521 437.081C425.6 436.718 425.69 436.369 425.836 436.034C425.983 435.692 426.2 435.361 426.531 435.087Z" fill="#1C1C1C"/>
<path d="M466.539 421.412C466.192 421.631 465.907 422.027 465.744 422.476C465.579 422.927 465.517 423.414 465.501 423.877C465.471 424.809 465.61 425.681 465.648 426.428C465.653 427.141 465.643 427.824 465.48 428.495C465.365 429.169 465.155 429.827 464.857 430.428C464.609 431.06 464.256 431.641 463.848 432.164C463.647 432.434 463.438 432.705 463.199 432.949C463.086 433.077 462.957 433.191 462.834 433.313C462.708 433.434 462.587 433.563 462.454 433.677C461.398 434.607 460.138 435.356 458.67 436.068C460.244 436.555 461.987 436.378 463.534 435.617C463.732 435.529 463.919 435.419 464.113 435.316C464.295 435.193 464.481 435.078 464.658 434.942C465.018 434.681 465.354 434.38 465.683 434.062C466.301 433.375 466.832 432.598 467.235 431.737C467.603 430.857 467.844 429.915 467.949 428.944C468.009 427.973 467.954 426.964 467.66 426.037C467.39 425.145 467.044 424.419 466.776 423.698C466.642 423.337 466.525 422.984 466.464 422.612C466.401 422.233 466.404 421.828 466.539 421.412Z" fill="#1C1C1C"/>
<path d="M413.346 442.704C414.195 441.735 415.031 440.754 415.858 439.766C416.268 439.274 416.696 438.769 417.066 438.175C417.436 437.588 417.747 436.871 417.816 436.102C417.888 435.342 417.739 434.585 417.475 433.948C417.215 433.302 416.863 432.741 416.493 432.23C416.125 431.715 415.727 431.247 415.363 430.793L414.822 430.114L414.295 429.423C412.93 427.547 411.624 425.619 410.445 423.58C409.219 421.576 408.07 419.503 406.922 417.41L403.346 411.202L401.503 408.133L400.58 406.598L399.63 405.084C397.108 401.035 394.499 397.042 391.647 393.207C393.48 397.704 395.555 402.043 397.717 406.327L398.522 407.935L399.355 409.526L401.025 412.708L404.473 418.999C405.668 421.072 406.882 423.151 408.191 425.183C409.536 427.186 410.949 429.167 412.589 430.953L413.206 431.62L413.841 432.27C414.267 432.698 414.677 433.091 415.052 433.501C415.801 434.311 416.401 435.184 416.45 436.161C416.479 436.644 416.352 437.166 416.122 437.704C415.891 438.242 415.569 438.784 415.248 439.342C414.597 440.449 413.964 441.573 413.346 442.704Z" fill="#1C1C1C"/>
<path d="M457.476 439.582C458.198 438.524 458.904 437.457 459.602 436.384C459.946 435.849 460.308 435.299 460.603 434.668C460.897 434.045 461.119 433.3 461.097 432.532C461.078 431.772 460.842 431.042 460.507 430.443C460.176 429.836 459.764 429.323 459.34 428.862C458.917 428.396 458.471 427.981 458.06 427.575L457.448 426.968L456.848 426.347C455.286 424.654 453.775 422.903 452.376 421.028C450.935 419.192 449.562 417.279 448.186 415.345L443.94 409.633L441.767 406.817L440.679 405.41L439.566 404.026C436.611 400.323 433.576 396.684 430.321 393.231C432.651 397.458 435.202 401.501 437.832 405.479L438.812 406.974L439.819 408.448L441.835 411.395L445.965 417.205C447.384 419.112 448.821 421.023 450.348 422.877C451.906 424.698 453.529 426.488 455.351 428.06L456.036 428.646L456.737 429.214C457.206 429.586 457.655 429.927 458.072 430.288C458.905 430.999 459.596 431.791 459.76 432.751C459.845 433.225 459.782 433.756 459.618 434.314C459.455 434.873 459.202 435.447 458.952 436.036C458.442 437.207 457.951 438.392 457.476 439.582Z" fill="#1C1C1C"/>
<path d="M425.846 434.931C428.289 436.118 430.486 437.713 432.344 439.645C433.279 440.602 434.119 441.66 434.871 442.776C435.066 443.05 435.236 443.345 435.416 443.626C435.598 443.914 435.755 444.194 435.873 444.457C436.121 444.996 436.144 445.412 436.021 445.876C435.89 446.334 435.568 446.837 435.152 447.322C434.729 447.81 434.231 448.273 433.681 448.748L430.308 451.696L423.622 457.68L417.024 463.777L415.389 465.324L414.573 466.099L414.165 466.485C414.117 466.53 414.128 466.519 414.124 466.528L414.115 466.541L414.09 466.571L414.038 466.634C414.029 466.643 414.018 466.664 414.01 466.664L413.982 466.647C413.947 466.625 413.902 466.589 413.874 466.552L413.868 466.545L413.842 466.511L413.782 466.428C413.745 466.371 413.715 466.303 413.68 466.244C413.612 466.12 413.542 465.997 413.49 465.857C413.368 465.59 413.275 465.297 413.198 464.991C412.884 463.762 412.858 462.331 412.927 460.879C412.96 460.151 413.024 459.415 413.087 458.656L413.263 456.394C413.376 454.893 413.472 453.372 413.568 451.879C413.628 451.139 413.708 450.404 413.901 449.687C414.093 448.975 414.409 448.275 414.921 447.71C414.328 448.164 413.865 448.843 413.546 449.568C413.225 450.294 413.025 451.064 412.858 451.825C412.549 453.336 412.274 454.824 412.001 456.327L411.6 458.575C411.469 459.318 411.338 460.087 411.235 460.863C411.04 462.413 410.926 464.028 411.225 465.672C411.299 466.08 411.398 466.492 411.542 466.89C411.603 467.092 411.69 467.287 411.778 467.482C411.823 467.581 411.861 467.677 411.912 467.773L412.1 468.097C412.262 468.401 412.477 468.603 412.678 468.838L412.986 469.184L413.313 469.515L413.642 469.848L413.682 469.889C413.699 469.88 413.714 469.864 413.729 469.852L413.823 469.779L414.015 469.632L414.399 469.338L414.594 469.189L414.787 469.016L415.544 468.344L415.967 467.976L416.812 467.238L418.499 465.765L425.18 459.776L431.777 453.677L435.044 450.584C435.603 450.057 436.19 449.472 436.724 448.784C437.249 448.09 437.768 447.257 437.978 446.218C438.085 445.703 438.088 445.164 438.003 444.659C437.911 444.154 437.726 443.724 437.525 443.357C437.32 442.989 437.103 442.676 436.887 442.391C436.669 442.104 436.457 441.81 436.222 441.537C435.309 440.428 434.304 439.419 433.205 438.549C431.022 436.799 428.5 435.561 425.846 434.931Z" fill="#1C1C1C"/>
<path d="M466.357 421.888C469.048 421.425 471.721 421.443 474.263 421.937C475.535 422.175 476.773 422.551 477.963 423.026C478.264 423.137 478.554 423.279 478.845 423.405C479.141 423.535 479.413 423.672 479.642 423.819C480.116 424.117 480.336 424.446 480.454 424.9C480.56 425.355 480.523 425.959 480.396 426.603C480.265 427.254 480.056 427.929 479.808 428.644L478.303 433.059L475.389 441.927L472.605 450.836L471.933 453.074L471.599 454.193L471.431 454.75C471.411 454.816 471.415 454.8 471.416 454.81L471.414 454.827L471.408 454.865L471.392 454.949C471.389 454.961 471.389 454.985 471.382 454.989L471.35 454.992C471.309 454.995 471.253 454.991 471.211 454.977L471.203 454.975L471.163 454.962L471.071 454.929C471.012 454.905 470.953 454.867 470.894 454.839C470.776 454.776 470.656 454.716 470.543 454.631C470.309 454.483 470.087 454.298 469.873 454.091C469.008 453.264 468.296 452.101 467.657 450.865C467.334 450.246 467.035 449.603 466.724 448.94L465.787 446.975C465.162 445.672 464.512 444.363 463.877 443.078C463.572 442.433 463.287 441.78 463.109 441.077C462.932 440.377 462.869 439.615 463.041 438.847C462.746 439.571 462.672 440.403 462.744 441.187C462.815 441.975 463.013 442.727 463.234 443.451C463.695 444.877 464.173 446.264 464.66 447.664L465.395 449.75C465.64 450.44 465.897 451.149 466.182 451.849C466.759 453.241 467.438 454.637 468.49 455.814C468.751 456.107 469.035 456.388 469.351 456.63C469.501 456.761 469.671 456.87 469.841 456.979C469.928 457.034 470.008 457.09 470.098 457.139L470.416 457.295C470.704 457.45 470.988 457.49 471.275 457.564L471.709 457.668L472.152 457.747L472.598 457.828L472.652 457.838C472.663 457.82 472.668 457.798 472.675 457.78L472.722 457.664L472.817 457.43L473.009 456.962L473.105 456.724L473.19 456.467L473.523 455.468L473.712 454.916L474.089 453.811L474.842 451.603L477.75 442.734L480.532 433.824L481.874 429.352C482.105 428.589 482.332 427.762 482.465 426.88C482.585 426 482.633 425.007 482.315 424.028C482.16 423.541 481.903 423.096 481.586 422.73C481.262 422.368 480.895 422.124 480.544 421.94C480.189 421.758 479.85 421.628 479.525 421.521C479.198 421.413 478.873 421.296 478.538 421.209C477.211 420.835 475.853 420.596 474.482 420.528C471.746 420.374 468.963 420.841 466.357 421.888Z" fill="#1C1C1C"/>
<path d="M438.353 278.057C438.06 281.531 437.994 284.976 437.974 288.418C437.935 290.14 437.992 291.857 437.986 293.573C438.027 295.289 438.062 297.007 438.081 298.721C438.151 300.437 438.208 302.154 438.255 303.87L438.376 306.448L438.43 307.737L438.516 309.027C438.717 312.468 438.965 315.914 439.447 319.393C440.159 315.992 440.534 312.551 440.753 309.103L440.837 307.809L440.888 306.515L440.97 303.923C440.974 302.195 440.965 300.462 440.947 298.732C440.872 297.001 440.786 295.272 440.692 293.542C440.539 291.813 440.425 290.081 440.199 288.356C439.797 284.91 439.242 281.467 438.353 278.057Z" fill="#1C1C1C"/>
<path d="M458.512 173.801C460.228 175.572 461.793 177.6 462.691 180.008C463.058 180.989 463.307 182.024 463.759 182.962C464.332 184.148 465.202 185.116 465.968 186.157C471.722 193.986 470.788 206.86 463.98 213.598C467.365 220.594 464.139 230.526 457.511 233.499C455.783 234.274 453.783 234.717 452.621 236.338C451.875 237.382 451.612 238.74 451.217 239.999C449.273 246.211 443.717 250.433 437.91 251.586C432.106 252.739 426.114 251.238 420.646 248.812C414.12 245.923 407.483 240.775 406.336 233.048C403.174 233.395 399.995 230.67 399.486 227.173C405.592 226.173 409.806 217.968 407.485 211.605C406.854 209.881 405.783 208.284 404.267 207.502C402.751 206.723 400.766 206.939 399.642 208.319C399.715 206.205 399.778 204.021 399.09 202.05C398.405 200.078 396.766 198.363 394.87 198.411C392.967 198.463 391.042 200.206 389.334 199.271C387.727 198.389 387.69 195.865 388.024 193.898C390.099 181.574 397.609 170.522 407.691 164.95C422.282 156.893 446.545 161.435 458.512 173.801Z" fill="#1C1C1C"/>
<path d="M390.259 153.829C397.22 129.733 418.503 125.776 428.274 126.81C404.457 128.582 396.365 144.97 395.297 152.943C391.266 156.486 390.259 155.01 390.259 153.829Z" fill="white"/>
<path d="M457.607 208.552C458.992 205.624 460.438 202.63 460.957 199.392C461.434 196.424 460.918 193.733 459.908 190.877C459.813 190.607 460.232 190.43 460.403 190.646C464.768 196.092 461.242 203.799 458.808 208.98C458.482 209.682 457.273 209.257 457.607 208.552Z" fill="white"/>
<path d="M441.418 242.025C440.975 242.672 440.485 243.271 439.928 243.793C439.444 244.248 438.84 244.861 438.228 245.049C438.009 245.116 437.847 244.74 438.025 244.579C438.522 244.134 439.15 243.893 439.668 243.449C440.22 242.976 440.718 242.428 441.166 241.826C441.291 241.664 441.537 241.85 441.418 242.025Z" fill="white"/>
<path d="M437.405 239.932C436.417 241.306 434.333 242.616 432.661 242.817C432.324 242.857 432.115 242.363 432.448 242.202C433.267 241.812 434.147 241.608 434.953 241.174C435.749 240.746 436.442 240.173 437.208 239.703C437.339 239.626 437.489 239.815 437.405 239.932Z" fill="white"/>
<path d="M452.899 240.736C453.397 247.586 451.862 265.537 441.738 282.536" stroke="#1C1C1C" stroke-width="2"/>
<path d="M409.337 210.669C412.55 214.217 421.425 219.465 431.223 212.072" stroke="#1C1C1C" stroke-width="2"/>
<path d="M423.019 210.744L414.29 204.97L425.797 206.51L430.782 212.445L423.019 210.744Z" fill="#1C1C1C"/>
<path d="M359.113 206.094L224.914 232.67L220.334 224.698L344.457 200.336L358.197 197.236L359.113 206.094Z" fill="black"/>
<path d="M391.633 327.457L390.717 322.585C395.48 324.357 406.137 321.847 410.869 320.37L415.908 329.229L391.633 327.457Z" fill="#1C1C1C"/>
<path d="M430.06 327.556L428.548 322.825C433.496 324.033 443.766 320.309 448.282 318.296L454.38 326.508L430.06 327.556Z" fill="#1C1C1C"/>
<path d="M449.343 381.495L474.076 423.13" stroke="black"/>
<path d="M38.79 428.57L10.7312 468.184" stroke="black"/>
<path d="M483.236 204.323L507.969 245.958" stroke="black"/>
<path d="M442.641 390.353L456.347 415.427" stroke="black"/>
<path d="M405.373 209.638L394.839 268.991" stroke="black"/>
<path d="M390.548 206.541L389.969 228.68" stroke="black"/>
<path d="M417.281 214.953L406.747 274.306" stroke="black"/>
<path d="M431.022 212.295L419.114 278.735" stroke="black"/>
<path d="M439.266 233.556L431.938 277.849" stroke="black"/>
<path d="M448.427 223.812L441.099 249.502" stroke="black"/>
<path d="M335.669 88.3131C335.089 85.3998 333.921 82.6254 332.233 80.1485C330.544 77.6715 328.368 75.5405 325.827 73.877C323.287 72.2135 320.433 71.0502 317.428 70.4534C314.423 69.8567 311.325 69.8382 308.313 70.399L312.729 92.5836L335.669 88.3131Z" fill="#F5C554"/>
<path d="M335.669 88.3131C335.089 85.3998 333.921 82.6254 332.233 80.1485C330.544 77.6715 328.368 75.5405 325.827 73.877C323.287 72.2135 320.433 71.0502 317.428 70.4534C314.423 69.8567 311.325 69.8382 308.313 70.399L312.729 92.5836L335.669 88.3131Z" fill="#673AB7"/>
<path d="M392.417 84.7084C389.012 83.9904 385.535 83.6383 382.05 83.6583L382.331 129.44L392.417 84.7084Z" fill="#1C1C1C"/>
<path d="M198.267 344.41C198.976 347.969 200.76 351.245 203.394 353.824C206.028 356.403 209.393 358.169 213.065 358.898C216.737 359.627 220.549 359.287 224.021 357.92C227.493 356.554 230.467 354.223 232.569 351.221C234.67 348.22 235.805 344.683 235.828 341.059C235.851 337.434 234.762 333.884 232.699 330.858C230.636 327.832 227.691 325.465 224.237 324.057C220.783 322.649 216.975 322.264 213.295 322.949L216.877 340.945L198.267 344.41Z" fill="#3CCC95"/>
<path d="M456.481 49.7973L461.155 55.1541C461.537 55.592 462.161 55.7399 462.699 55.5263L469.352 52.8875C469.725 52.7396 470.056 53.1399 469.855 53.4576L466.09 59.407C465.784 59.891 465.833 60.5165 466.215 60.9549L470.889 66.3117C471.135 66.5932 470.876 67.0438 470.479 66.9484L463.478 65.2685C462.91 65.1321 462.319 65.3665 462.013 65.8496L458.248 71.7991C458.035 72.1369 457.524 71.9915 457.494 71.6243L456.932 64.6367C456.886 64.0648 456.467 63.5861 455.898 63.4494L448.897 61.7696C448.524 61.6799 448.468 61.1704 448.841 61.0225L455.495 58.3837C456.033 58.1701 456.37 57.6411 456.324 57.0699L455.763 50.0822C455.732 49.7004 456.226 49.5046 456.481 49.7973ZM457.029 49.3401C456.316 48.5231 454.955 49.0627 455.041 50.1285L455.602 57.1161C455.623 57.3772 455.469 57.6245 455.215 57.7251L448.562 60.3639C447.557 60.7626 447.658 62.2007 448.734 62.459L455.735 64.1388C455.999 64.2023 456.19 64.4226 456.211 64.6829L456.772 71.6706C456.859 72.751 458.299 73.0737 458.865 72.1791L462.63 66.2297C462.773 66.0041 463.05 65.8942 463.315 65.9579L470.316 67.6378C471.368 67.8904 472.159 66.6828 471.437 65.8545L466.763 60.4977C466.589 60.2981 466.565 60.0118 466.707 59.7871L470.472 53.8377C471.051 52.9229 470.078 51.8302 469.073 52.2289L462.42 54.8677C462.166 54.9684 461.877 54.8971 461.702 54.6969L457.029 49.3401Z" fill="black" stroke="black" stroke-width="0.5"/>
<ellipse cx="5.79263" cy="20.5663" rx="5.79263" ry="20.5663" transform="matrix(0.668142 0.744034 -0.765776 0.643108 323.544 318.361)" fill="black"/>
<path d="M326.575 368.472L298.346 349.675L328.267 323.812L347.855 348.322C350.466 351.589 351.289 356.076 349.264 359.78C343.826 369.728 337.518 370.661 332.832 370.536C330.592 370.477 328.428 369.706 326.575 368.472Z" stroke="black" stroke-width="2"/>
<path d="M246.441 333.477C255.611 318.147 289.263 327.551 304.943 334.169L303.246 343.324C280.49 346.429 237.271 348.807 246.441 333.477Z" stroke="black"/>
<path d="M293.141 282.961C287.969 291.774 303.767 316.665 312.312 328.008L317.985 326.26C316.303 313.863 317.543 297.203 312.939 283.23C311.08 277.59 299.606 271.946 293.141 282.961Z" stroke="black"/>
<path d="M258.588 325.683C254.287 320.437 248.976 309.257 262.144 306.5C275.312 303.743 300.856 321.911 311.982 331.339" stroke="black"/>
<path d="M270.42 307.035C268.181 301.546 267.346 290.482 281.93 290.13C284.662 290.454 290.923 292.319 294.115 297.192" stroke="black"/>
<path d="M305.798 332.067C285.516 320.991 265.627 322.853 258.218 325.169C279.977 324.261 297.532 330.634 303.59 333.934L305.798 332.067Z" fill="black"/>
<path d="M330.792 335.385C331.449 335.858 343.863 350.966 350.434 357.355" stroke="black"/>
<path d="M93.6159 248.505C86.8983 247.896 83.2341 251.55 82.0128 252.159C83.967 249.723 88.1197 247.084 89.9517 246.069L92.3945 243.024L91.1731 246.069H92.3945L94.8372 242.415L93.6159 248.505Z" fill="#1C1C1C"/>
<path d="M119.265 241.418C112.547 240.809 108.883 244.463 107.662 245.072C109.616 242.636 113.769 239.997 115.601 238.982L118.044 235.937L116.822 238.982H118.044L120.486 235.328L119.265 241.418Z" fill="#1C1C1C"/>
<path d="M218.002 347.389C218.002 355.659 211.065 362.392 202.471 362.392C193.878 362.392 186.941 355.659 186.941 347.389C186.941 339.119 193.878 332.387 202.471 332.387C211.065 332.387 218.002 339.119 218.002 347.389Z" stroke="black"/>
<defs>
<clipPath id="clip0_42_3">
<rect width="54.0461" height="52.2658" fill="white" transform="translate(153.464 157.372)"/>
</clipPath>
</defs>
</svg>
