<svg xmlns="http://www.w3.org/2000/svg" width="30" height="30" viewBox="0 0 30 30" fill="none">
  <g clip-path="url(#clip0_32_155)">
    <path d="M28.2421 16.0305V13.2426C28.2421 12.7573 27.8486 12.3637 27.3632 12.3637C25.5475 12.3637 23.8547 12.517 22.2554 12.8299C21.3231 11.9296 20.1866 11.2764 18.9558 10.9193C20.2978 9.78984 21.1522 8.09865 21.1522 6.21141C21.1522 2.78667 18.3923 0.000480652 14.9999 0.000480652C11.6075 0.000480652 8.84758 2.78667 8.84758 6.21141C8.84758 8.09865 9.70199 9.78984 11.0441 10.9193C9.81332 11.2764 8.67678 11.9296 7.7445 12.8298C6.14518 12.517 4.45241 12.3637 2.63671 12.3637C2.15132 12.3637 1.75781 12.7572 1.75781 13.2426V16.0305C0.734823 16.3933 0 17.3702 0 18.516V20.2738C0 21.4196 0.734823 22.3965 1.75781 22.7594V25.5472C1.75781 26.0326 2.15132 26.4262 2.63671 26.4262C7.23215 26.4262 11.0058 27.515 14.5125 29.8528C14.8063 30.0486 15.1934 30.0491 15.4875 29.8528C18.9942 27.515 22.7678 26.4262 27.3633 26.4262C27.8487 26.4262 28.2422 26.0326 28.2422 25.5472V22.7594C29.2652 22.3965 30 21.4196 30 20.2738V18.516C29.9999 17.3703 29.2651 16.3933 28.2421 16.0305ZM10.6054 6.21141C10.6054 3.75592 12.5768 1.75829 14.9999 1.75829C17.4231 1.75829 19.3944 3.75592 19.3944 6.21141C19.3944 8.63455 17.4231 10.6059 14.9999 10.6059C12.5768 10.6059 10.6054 8.63455 10.6054 6.21141ZM2.63666 21.1528C2.15203 21.1528 1.75775 20.7585 1.75775 20.2739V18.5161C1.75775 18.0314 2.15203 17.6372 2.63666 17.6372C3.12128 17.6372 3.51556 18.0314 3.51556 18.5161V20.2739C3.51556 20.7585 3.12128 21.1528 2.63666 21.1528ZM14.121 27.5445C10.9304 25.7198 7.50661 24.7976 3.51556 24.6811V22.7594C4.53855 22.3966 5.27337 21.4197 5.27337 20.2739V18.5161C5.27337 17.3703 4.53855 16.3933 3.51556 16.0305V14.134C7.6453 14.2525 10.9648 15.225 14.121 17.2345V27.5445ZM14.9999 15.7117C13.3777 14.6881 11.6891 13.9088 9.88656 13.3611C10.877 12.7174 12.043 12.3637 13.2421 12.3637H16.7577C17.9568 12.3637 19.1228 12.7174 20.1133 13.3611C18.3107 13.9088 16.6221 14.6881 14.9999 15.7117ZM26.4843 24.6811C22.4933 24.7976 19.0694 25.72 15.8788 27.5446V17.2352C19.0351 15.2255 22.3544 14.2524 26.4843 14.134V16.0305C25.4613 16.3933 24.7265 17.3703 24.7265 18.5161V20.2739C24.7265 21.4197 25.4613 22.3966 26.4843 22.7594V24.6811ZM28.2421 20.2739C28.2421 20.7585 27.8478 21.1528 27.3632 21.1528C26.8785 21.1528 26.4843 20.7585 26.4843 20.2739V18.5161C26.4843 18.0314 26.8785 17.6372 27.3632 17.6372C27.8478 17.6372 28.2421 18.0314 28.2421 18.5161V20.2739Z" fill="black"/>
  </g>
  <defs>
    <clipPath id="clip0_32_155">
      <rect width="30" height="30" fill="white"/>
    </clipPath>
  </defs>
</svg>