<svg xmlns="http://www.w3.org/2000/svg" width="30" height="30" viewBox="0 0 30 30" fill="none">
  <g clip-path="url(#clip0_32_165)">
    <path d="M26.8898 3.90736H25.0065V2.41478C25.0065 1.98499 24.6549 1.63333 24.2251 1.63333C23.7953 1.63333 23.4436 1.98499 23.4436 2.41478V3.90736H15.7854V2.41478C15.7854 1.98499 15.4337 1.63333 15.0039 1.63333C14.5741 1.63333 14.2225 1.98499 14.2225 2.41478V3.90736H6.48607V2.41478C6.48607 1.98499 6.13442 1.63333 5.70462 1.63333C5.27482 1.63333 4.92316 1.98499 4.92316 2.41478V3.90736H3.118C1.3988 3.90736 0 5.35305 0 7.07225V25.241C0 26.9681 1.39099 28.3669 3.118 28.3669H26.882C28.609 28.3669 30 26.9681 30 25.2489V7.07225C30.0078 5.35305 28.609 3.90736 26.8898 3.90736ZM28.4449 25.241C28.4449 26.1006 27.7573 26.7961 26.8977 26.8039H26.8898H3.118C2.2584 26.8039 1.56291 26.1085 1.56291 25.2489V25.241V7.07225C1.56291 6.20483 2.2584 5.47027 3.118 5.47027H4.92316V6.60338C4.92316 7.03317 5.27482 7.38483 5.70462 7.38483C6.13442 7.38483 6.48607 7.03317 6.48607 6.60338V5.47027H14.2225V6.60338C14.2225 7.03317 14.5741 7.38483 15.0039 7.38483C15.4337 7.38483 15.7854 7.03317 15.7854 6.60338V5.47027H23.4436V6.60338C23.4436 7.03317 23.7953 7.38483 24.2251 7.38483C24.6549 7.38483 25.0065 7.03317 25.0065 6.60338V5.47027H26.8898C27.7573 5.47027 28.4449 6.21265 28.4449 7.07225V25.241Z" fill="black"/>
    <path d="M12.9487 10.5496H11.5811C11.1513 10.5496 10.7997 10.9013 10.7997 11.3311C10.7997 11.7609 11.1513 12.1125 11.5811 12.1125H12.9487C13.3785 12.1125 13.7301 11.7609 13.7301 11.3311C13.7301 10.9013 13.3785 10.5496 12.9487 10.5496Z" fill="black"/>
    <path d="M18.3876 10.5496H17.02C16.5902 10.5496 16.2386 10.9013 16.2386 11.3311C16.2386 11.7609 16.5902 12.1125 17.02 12.1125H18.3876C18.8174 12.1125 19.169 11.7609 19.169 11.3311C19.169 10.9013 18.8252 10.5496 18.3876 10.5496Z" fill="black"/>
    <path d="M23.8734 10.5496H22.5059C22.0761 10.5496 21.7244 10.9013 21.7244 11.3311C21.7244 11.7609 22.0761 12.1125 22.5059 12.1125H23.8734C24.3032 12.1125 24.6549 11.7609 24.6549 11.3311C24.6549 10.9013 24.3032 10.5496 23.8734 10.5496Z" fill="black"/>
    <path d="M12.9487 15.9417H11.5811C11.1513 15.9417 10.7997 16.2933 10.7997 16.7231C10.7997 17.1529 11.1513 17.5046 11.5811 17.5046H12.9487C13.3785 17.5046 13.7301 17.1529 13.7301 16.7231C13.7301 16.2933 13.3785 15.9417 12.9487 15.9417Z" fill="black"/>
    <path d="M7.47072 15.9417H6.09536C5.66556 15.9417 5.3139 16.2933 5.3139 16.7231C5.3139 17.1529 5.66556 17.5046 6.09536 17.5046H7.4629C7.8927 17.5046 8.24435 17.1529 8.24435 16.7231C8.24435 16.2933 7.90051 15.9417 7.47072 15.9417Z" fill="black"/>
    <path d="M18.3876 15.9417H17.02C16.5902 15.9417 16.2386 16.2933 16.2386 16.7231C16.2386 17.1529 16.5902 17.5046 17.02 17.5046H18.3876C18.8174 17.5046 19.169 17.1529 19.169 16.7231C19.169 16.2933 18.8252 15.9417 18.3876 15.9417Z" fill="black"/>
    <path d="M23.8734 15.9417H22.5059C22.0761 15.9417 21.7244 16.2933 21.7244 16.7231C21.7244 17.1529 22.0761 17.5046 22.5059 17.5046H23.8734C24.3032 17.5046 24.6549 17.1529 24.6549 16.7231C24.6549 16.2933 24.3032 15.9417 23.8734 15.9417Z" fill="black"/>
    <path d="M12.9487 21.2555H11.5811C11.1513 21.2555 10.7997 21.6072 10.7997 22.037C10.7997 22.4668 11.1513 22.8184 11.5811 22.8184H12.9487C13.3785 22.8184 13.7301 22.4668 13.7301 22.037C13.7301 21.6072 13.3785 21.2555 12.9487 21.2555Z" fill="black"/>
    <path d="M7.47072 21.2555H6.09536C5.66556 21.2555 5.3139 21.6072 5.3139 22.037C5.3139 22.4668 5.66556 22.8184 6.09536 22.8184H7.4629C7.8927 22.8184 8.24435 22.4668 8.24435 22.037C8.24435 21.6072 7.90051 21.2555 7.47072 21.2555Z" fill="black"/>
    <path d="M18.3876 21.2555H17.02C16.5902 21.2555 16.2386 21.6072 16.2386 22.037C16.2386 22.4668 16.5902 22.8184 17.02 22.8184H18.3876C18.8174 22.8184 19.169 22.4668 19.169 22.037C19.169 21.6072 18.8252 21.2555 18.3876 21.2555Z" fill="black"/>
  </g>
  <defs>
    <clipPath id="clip0_32_165">
      <rect width="30" height="30" fill="white"/>
    </clipPath>
  </defs>
</svg>