<svg xmlns="http://www.w3.org/2000/svg" width="30" height="30" viewBox="0 0 30 30" fill="none">
  <g clip-path="url(#clip0_32_159)">
    <path d="M29.8954 16.7792L25.9535 8.33731C25.8379 8.10095 25.5873 7.96173 25.3256 7.98851H21.9768C21.5914 7.98851 21.2791 8.30085 21.2791 8.68618C21.2791 9.07151 21.5914 9.38386 21.9768 9.38386H24.8721L28.1163 16.3606H24.1396C22.3365 16.3517 20.6967 17.4039 19.9535 19.0467C19.4152 20.1766 18.2748 20.8961 17.0233 20.8955H12.9767C11.7251 20.8961 10.5849 20.1766 10.0465 19.0467C9.30328 17.4039 7.66349 16.3517 5.86044 16.3606H1.95348L5.79066 9.38386H8.02324C8.40857 9.38386 8.72092 9.07151 8.72092 8.68618C8.72092 8.30085 8.40857 7.98851 8.02324 7.98851H5.37208C5.11996 7.9646 4.87632 8.08646 4.74418 8.30246L0.139549 16.7443C0.058824 16.8159 0.00881359 16.9159 0 17.0234V25.7095C0.0555523 27.6647 1.63746 29.2312 3.59301 29.2677H26.407C28.3626 29.2312 29.9444 27.6647 30 25.7095V17.0234C29.9867 16.9344 29.9507 16.8502 29.8954 16.7792ZM28.6046 25.7094C28.5504 26.8941 27.5924 27.837 26.407 27.8722H3.59301C2.40758 27.837 1.44957 26.8942 1.39535 25.7094V17.756H5.86044C7.11203 17.7554 8.25233 18.4749 8.79069 19.6048C9.5339 21.2476 11.1737 22.2998 12.9767 22.2909H17.0233C18.8263 22.2998 20.4661 21.2476 21.2093 19.6048C21.7476 18.4749 22.888 17.7554 24.1396 17.756H28.6046V25.7094Z" fill="black"/>
    <path d="M14.5116 16.8837C14.7591 17.1535 15.1784 17.1715 15.4481 16.924C15.4621 16.9112 15.4755 16.8977 15.4883 16.8837L20.2325 12.1046C20.4637 11.7964 20.4012 11.3591 20.093 11.1279C19.8449 10.9418 19.5038 10.9418 19.2557 11.1279L15.6976 14.686V1.43025C15.6976 1.04492 15.3852 0.732574 14.9999 0.732574C14.6146 0.732574 14.3022 1.04492 14.3022 1.43025V14.6861L10.7441 11.1279C10.4358 10.8968 9.99855 10.9592 9.76732 11.2675C9.5813 11.5155 9.5813 11.8567 9.76732 12.1047L14.5116 16.8837Z" fill="black"/>
  </g>
  <defs>
    <clipPath id="clip0_32_159">
      <rect width="30" height="30" fill="white"/>
    </clipPath>
  </defs>
</svg>