<svg width="30" height="30" viewBox="0 0 30 30" fill="none" xmlns="http://www.w3.org/2000/svg">
<g clip-path="url(#clip0_32_199)">
<path d="M15 0C6.71573 0 0 6.71573 0 15C0 23.2843 6.71573 30 15 30C23.2843 30 30 23.2843 30 15C29.9909 6.71953 23.2805 0.00913959 15 0ZM15 28.8922C7.32759 28.8922 1.10783 22.6724 1.10783 15C1.10783 7.32759 7.32759 1.10783 15 1.10783C22.6724 1.10783 28.8922 7.32759 28.8922 15C28.883 22.6687 22.6687 28.883 15 28.8922Z" fill="black"/>
<path d="M17.7419 16.9276C17.4562 16.5218 17.1128 16.1598 16.7227 15.853C16.1688 15.3822 15.7866 15.0665 15.4708 12.2858C15.3379 11.1226 15.0831 9.93721 14.2024 9.93721C13.3216 9.93721 12.7843 11.2001 12.4021 12.2747C12.3568 12.3556 12.3009 12.4301 12.236 12.4963C12.1042 12.3309 12.0029 12.1433 11.9368 11.9424L11.8205 11.6654L11.527 11.61C11.3239 11.575 11.1182 11.5583 10.9121 11.5602C9.91368 11.5413 8.96496 11.9951 8.35302 12.7843C8.17736 12.893 7.97186 12.9434 7.76587 12.9283C7.67607 12.892 7.58024 12.8732 7.48338 12.873C6.92946 12.873 6.75221 13.3826 6.62481 13.7149C6.40325 14.2688 6.27031 14.4793 5.89918 14.4793C5.03265 14.4452 4.20462 14.8386 3.68353 15.5317C3.25473 16.201 3.18618 17.0396 3.50073 17.7696L3.6226 18.0853C4.06732 19.0662 4.30855 20.1271 4.33161 21.2038C4.30668 21.9346 4.87887 22.5471 5.60962 22.572C5.63967 22.573 5.66972 22.573 5.69977 22.572C6.8076 22.572 8.25332 21.5417 9.11743 20.5225C9.32646 20.2308 9.65645 20.0495 10.0148 20.0295C10.5674 20.1011 11.0581 20.4187 11.3497 20.8936C11.6654 21.5694 13.51 22.8988 14.9834 22.8988C15.3266 22.9028 15.666 22.8269 15.9749 22.6772C17.0666 22.0293 17.8482 20.9658 18.1407 19.7304C18.4244 18.7828 18.2787 17.7585 17.7419 16.9276ZM17.0606 19.4313L17.055 19.4535C16.8334 20.3706 16.2631 21.1654 15.4653 21.6691C15.3096 21.7424 15.1388 21.7785 14.9668 21.7744C13.955 21.6454 13.0223 21.1603 12.3357 20.4062C11.8626 19.5509 10.9896 18.9925 10.0148 18.9217C9.32937 18.9383 8.68897 19.2667 8.27548 19.8135C7.40583 20.8382 6.26477 21.4752 5.70531 21.4752C5.56684 21.4752 5.46713 21.4752 5.44497 21.1429C5.41278 19.9544 5.14738 18.7838 4.66395 17.6975L4.54209 17.3818C4.35037 16.9853 4.37121 16.5189 4.59748 16.141C4.91529 15.7586 5.39761 15.5525 5.89364 15.5871C6.74501 15.5453 7.46365 14.9401 7.64955 14.1082V14.0362C8.13215 14.0512 8.60776 13.9178 9.01218 13.654L9.09527 13.5986L9.1562 13.5155C9.56492 12.9734 10.2178 12.672 10.8955 12.7123H11.0284C11.2222 13.223 11.6872 13.5808 12.2304 13.6374C12.9394 13.6374 13.3383 12.8785 13.4103 12.7289V12.6735C13.5824 12.1594 13.8168 11.6684 14.1082 11.2112C14.2284 11.6044 14.3064 12.0091 14.3408 12.4187C14.6898 15.4819 15.1939 16.0469 16.0026 16.706C16.3128 16.951 16.5853 17.2403 16.8113 17.5646C17.1558 18.1232 17.2464 18.8019 17.0606 19.4313Z" fill="black"/>
<path d="M12.9782 23.3087L12.8841 23.1314L12.6791 23.0539C12.3924 22.9536 12.0911 22.9012 11.7873 22.8988C11.374 22.8883 10.9741 23.0462 10.6795 23.3364C10.3596 23.7034 10.2071 24.1871 10.2585 24.6713C10.2973 25.6407 10.8955 25.9841 11.3664 25.9841C11.9846 25.9339 12.5391 25.5842 12.8508 25.048C13.2019 24.5329 13.2505 23.8694 12.9782 23.3087ZM11.9147 24.4553C11.7931 24.6623 11.5936 24.8119 11.3608 24.8707C11.3307 24.7911 11.3157 24.7066 11.3165 24.6215C11.288 24.4384 11.3274 24.2512 11.4273 24.0952C11.5228 24.0243 11.6411 23.9908 11.7596 24.0011C11.8444 23.9937 11.9297 23.9937 12.0144 24.0011C12.0283 24.1598 11.9914 24.3188 11.9092 24.4553H11.9147V24.4553Z" fill="black"/>
<path d="M18.185 7.38357C17.9136 6.64133 16.8833 6.2979 16.202 6.13727C16.1578 5.80651 16.0237 5.49417 15.8142 5.23439C15.3157 4.614 14.4295 4.28719 13.1721 4.27611C12.5008 3.68813 11.6577 3.33266 10.7681 3.26245C10.0093 3.26695 9.30124 3.64382 8.87368 4.27058C8.43367 4.72721 8.3035 5.39994 8.54134 5.98771C8.95677 6.85736 10.2695 7.09554 10.9176 7.16201C11.3113 7.88992 12.0433 8.37231 12.8674 8.44709C13.1905 8.44356 13.5079 8.36186 13.7924 8.20891C14.3131 8.66865 15.3434 9.44967 16.3848 9.44967C16.9316 9.45397 17.4525 9.21682 17.8083 8.80159C18.2031 8.44487 18.3508 7.88916 18.185 7.38357ZM16.9885 8.07597V8.05935C16.844 8.23778 16.6254 8.33991 16.3958 8.33631C15.6148 8.33631 14.5956 7.46112 14.2744 7.12323C14.0795 6.92299 13.766 6.89925 13.5432 7.06784C13.3594 7.22848 13.1277 7.32389 12.884 7.33926C12.2415 7.33926 11.7762 6.40315 11.7762 6.39761C11.6881 6.21225 11.5048 6.09074 11.2998 6.08187C10.5908 6.04864 9.69902 5.81046 9.56054 5.52796C9.51069 5.41718 9.59377 5.20115 9.7821 4.97405C10.0012 4.6318 10.3783 4.42346 10.7847 4.42013C11.4671 4.50661 12.1038 4.80946 12.6015 5.28424C12.7065 5.38249 12.8455 5.43615 12.9893 5.4338H13.0945C14.0085 5.4338 14.6676 5.62213 14.9501 5.98771C15.0776 6.1426 15.1374 6.34215 15.1163 6.54162C15.0721 6.83354 15.2645 7.1089 15.5539 7.16755C16.2684 7.26171 17.055 7.56637 17.1326 7.77685C17.1603 7.79901 17.1492 7.89318 16.9885 8.07597Z" fill="black"/>
<path d="M25.9731 19.4036C25.6739 18.4786 25.1865 18.2958 24.832 18.2958C24.2979 18.3713 23.8377 18.7107 23.6078 19.1987C23.2217 19.6705 22.7935 20.1062 22.3283 20.5004H21.3368C21.0309 20.4988 20.7816 20.7456 20.7801 21.0515C20.78 21.071 20.7809 21.0904 20.7829 21.1097L20.8937 22.1843L19.9299 23.1536C19.8234 23.2609 19.7653 23.4069 19.7692 23.558C19.8016 24.3711 20.4869 25.004 21.3 24.9717C21.3086 24.9714 21.3171 24.9709 21.3257 24.9705C21.6094 24.9658 21.891 24.921 22.1621 24.8375C22.226 24.8189 22.2861 24.7888 22.3394 24.7489C23.0595 24.195 26.6156 21.3866 25.9731 19.4036ZM21.7522 23.8072C21.6131 23.8448 21.4698 23.8652 21.3257 23.8682C21.173 23.8858 21.022 23.8228 20.9269 23.702L21.8686 22.7548C21.987 22.6371 22.046 22.4722 22.0292 22.3061L21.9516 21.5805H22.5388C22.6735 21.5803 22.8034 21.5311 22.9044 21.442C23.5117 20.942 24.0667 20.3816 24.5606 19.7692L24.555 19.7526C24.6213 19.6428 24.6993 19.5407 24.7877 19.4479C24.8413 19.5445 24.8841 19.6467 24.9151 19.7526C25.2031 20.6444 23.2533 22.6717 21.7522 23.8072Z" fill="black"/>
</g>
<defs>
<clipPath id="clip0_32_199">
<rect width="30" height="30" fill="white"/>
</clipPath>
</defs>
</svg>
